<svg width="36" height="33" viewBox="0 0 36 33" xmlns="http://www.w3.org/2000/svg"><g fill="none" fill-rule="evenodd"><path d="M18 0C8.059 0 0 6.31 0 14.094c0 5.032 3.37 9.448 8.437 11.941-.276.944-1.772 6.075-1.831 6.478 0 0-.036.303.161.418.198.116.43.026.43.026.567-.078 6.567-4.264 7.606-4.991a22.96 22.96 0 0 0 3.197.222c9.941 0 18-6.31 18-14.094S27.941 0 18 0" fill="#402D33"/><path d="M8.048 19.014c-.573 0-1.038-.442-1.038-.985v-6.127H5.39c-.563 0-1.02-.453-1.02-1.01 0-.556.457-1.01 1.02-1.01h5.317c.562 0 1.019.454 1.019 1.01 0 .557-.457 1.01-1.02 1.01h-1.62v6.127c0 .543-.465.985-1.038.985M15.23 15.381l-1.038-2.926-1.037 2.926h2.075zm1.924 3.62c-.433 0-.764-.175-.864-.456l-.514-1.337h-3.167l-.515 1.337c-.1.28-.43.455-.863.455-.229 0-.457-.049-.66-.142-.287-.131-.562-.492-.246-1.464l2.484-6.493c.175-.494.706-1.003 1.382-1.018.679.015 1.21.524 1.386 1.019l2.483 6.49c.316.974.04 1.335-.246 1.466a1.598 1.598 0 0 1-.66.142zM19.73 18.863c-.548 0-.994-.424-.994-.945v-7.004c0-.569.475-1.031 1.06-1.031.584 0 1.06.462 1.06 1.031v6.059h2.206c.55 0 .996.424.996.945 0 .521-.447.945-.995.945H19.73zM25.5 19a1.036 1.036 0 0 1-1.038-1.031v-7.055c0-.569.465-1.031 1.038-1.031s1.039.462 1.039 1.031v2.217l2.897-2.878a.81.81 0 0 1 .576-.23c.26 0 .52.112.715.305.181.181.29.413.305.654a.8.8 0 0 1-.23.628l-2.366 2.35 2.556 3.363a1.023 1.023 0 0 1-.203 1.444 1.033 1.033 0 0 1-.625.208c-.329 0-.631-.15-.83-.41L26.9 15.361l-.36.357v2.25c0 .57-.466 1.032-1.039 1.032" fill="#FFE812"/></g></svg>