<svg width="110" height="110" viewBox="0 0 110 110" xmlns="http://www.w3.org/2000/svg"><g fill="none" fill-rule="evenodd"><circle fill="#82E7C7" fill-rule="nonzero" cx="55" cy="55" r="55"/><path d="M77.5 72.501H60.975V66.34c0-5.563-2.94-10.597-7.74-13.378.48-.496.924-1.045 1.325-1.642a11.48 11.48 0 0 0 1.431-2.957c.365-1.148.549-2.32.549-3.484 0-.372-.019-.742-.054-1.108-.01-.122-.035-.24-.05-.363-.03-.242-.06-.485-.107-.724-.026-.141-.065-.278-.097-.417-.05-.215-.098-.432-.16-.644-.043-.146-.096-.287-.144-.431-.068-.201-.133-.4-.212-.597-.058-.145-.125-.286-.189-.429-.084-.188-.168-.377-.262-.56-.073-.143-.155-.28-.234-.42a11.18 11.18 0 0 0-.312-.525c-.087-.137-.182-.27-.275-.403-.116-.166-.234-.331-.36-.492-.102-.13-.21-.257-.318-.383-.078-.093-.15-.19-.232-.281A10.036 10.036 0 0 1 62.99 30.5c5.555 0 10.074 4.52 10.074 10.074 0 2.958-1.297 5.758-3.562 7.68a.75.75 0 0 0 .153 1.244c4.765 2.353 7.844 7.275 7.844 12.537V72.5zm-18.025 7H31.5V66.338c0-5.064 2.774-9.752 7.238-12.232a.751.751 0 0 0 .093-1.25c-2.504-1.93-3.94-4.837-3.94-7.979 0-5.556 4.519-10.074 10.075-10.074a9.999 9.999 0 0 1 7.178 3.01 10.014 10.014 0 0 1 2.418 10.095 10.018 10.018 0 0 1-1.245 2.574 10.17 10.17 0 0 1-1.839 2.074.748.748 0 0 0 .153 1.244c4.765 2.354 7.844 7.276 7.844 12.538V79.5zm11.789-30.84C75.996 51.423 79 56.562 79 62.035V73.25a.75.75 0 0 1-.75.75H60.975v6.25a.75.75 0 0 1-.75.749H30.75a.75.75 0 0 1-.75-.75V66.34c0-5.252 2.692-10.137 7.09-12.991a11.476 11.476 0 0 1-3.699-8.47c0-6.382 5.192-11.574 11.575-11.574 2.739 0 5.327.946 7.404 2.682A11.526 11.526 0 0 1 62.99 29c6.383 0 11.575 5.193 11.575 11.574 0 3.038-1.19 5.93-3.301 8.087zm-23.838 18.23l-1.938 1.552-1.94-1.551v-9.99h3.878v9.99zm.75-11.488h-5.378a.75.75 0 0 0-.75.75v11.099c0 .228.104.444.281.585l2.69 2.152a.748.748 0 0 0 .936 0l2.69-2.152a.752.752 0 0 0 .28-.585v-11.1a.75.75 0 0 0-.75-.75z" fill="#FFF"/></g></svg>