<svg width="110" height="110" viewBox="0 0 110 110" xmlns="http://www.w3.org/2000/svg"><g fill="none" fill-rule="evenodd"><circle fill="#8AE0ED" fill-rule="nonzero" cx="55" cy="55" r="55"/><path d="M55.316 70.075c-3.977 0-7.211-3.22-7.211-7.176 0-3.958 3.234-7.178 7.211-7.178 3.977 0 7.211 3.22 7.211 7.178 0 3.956-3.234 7.176-7.211 7.176m14.733-12.352c.624 1.699.951 3.524.951 5.354C71 71.857 63.823 79 55 79c-8.822 0-16-7.144-16-15.923 0-1.626.248-3.234.736-4.779l4.438-18.216.515-1.912.021-.063C46.313 33.857 50.447 31 55 31c5.906 0 9.895 3.6 10.943 9.878l4.106 16.845zM55 77.622c8.059 0 14.615-6.525 14.615-14.545 0-1.67-.299-3.337-.89-4.957l-4.138-16.967c-.95-5.676-4.35-8.775-9.587-8.775-3.968 0-7.573 2.483-8.982 6.183l-.503 1.863-4.446 18.243a14.606 14.606 0 0 0-.684 4.41c0 8.02 6.557 14.545 14.615 14.545zm.316-23.279c4.74 0 8.596 3.839 8.596 8.556 0 4.716-3.856 8.554-8.596 8.554s-8.597-3.838-8.597-8.554c0-4.717 3.857-8.556 8.597-8.556zm0-6.514c-3.022 0-5.48-2.447-5.48-5.455 0-3.007 2.458-5.454 5.48-5.454 3.022 0 5.48 2.447 5.48 5.454 0 3.008-2.458 5.455-5.48 5.455zm0-9.53c-2.259 0-4.096 1.828-4.096 4.075 0 2.248 1.837 4.077 4.096 4.077 2.259 0 4.096-1.829 4.096-4.077 0-2.247-1.837-4.076-4.096-4.076zm0 7.152a3.087 3.087 0 0 1-3.09-3.076 3.087 3.087 0 0 1 3.09-3.076 3.087 3.087 0 0 1 3.091 3.076 3.087 3.087 0 0 1-3.091 3.076zm0-4.774c-.94 0-1.706.762-1.706 1.698 0 .936.765 1.698 1.706 1.698s1.707-.762 1.707-1.698c0-.936-.766-1.698-1.707-1.698z" fill="#FFF"/></g></svg>