<svg width="58" height="50" viewBox="0 0 58 50" xmlns="http://www.w3.org/2000/svg"><g fill="none" fill-rule="evenodd"><path fill="#EFF6F9" fill-rule="nonzero" d="M0 0h58v50H0z"/><path d="M47 20.286c0 2.969-2.393 5.375-5.337 5.375H16.337c-2.944 0-5.337-2.406-5.337-5.375a5.375 5.375 0 0 1 4.556-5.312 5.293 5.293 0 0 1-.328-1.837c0-2.969 2.385-5.374 5.324-5.374.948 0 1.841.25 2.615.693C24.313 6.393 26.496 5 29 5c2.95 0 5.448 1.93 6.347 4.606a5.202 5.202 0 0 1 2.101-.438c2.938 0 5.324 2.4 5.324 5.37 0 .168-.012.324-.024.493 2.423.5 4.252 2.668 4.252 5.255zM23.633 31.83h-.001v-4.986h1.17v5.234a.574.574 0 0 1-.17.413l-1.777 1.794v1.297c.363.23.602.632.602 1.098 0 .72-.58 1.304-1.293 1.304a1.299 1.299 0 0 1-1.294-1.304c0-.548.34-1.015.814-1.21v-1.428c0-.16.064-.307.17-.419l1.779-1.793zm14.924 5.57a1.3 1.3 0 0 1-.608 2.444 1.3 1.3 0 0 1-1.294-1.304c0-.514.304-.956.73-1.169v-3.033l-2.392-1.789a.586.586 0 0 1-.24-.471v-5.234h1.17v4.933l2.4 1.794a.585.585 0 0 1 .234.472V37.399zm-4.096 5.105c.462.2.783.655.784 1.191A1.3 1.3 0 0 1 33.951 45a1.3 1.3 0 0 1-1.293-1.305c0-.473.258-.885.632-1.115v-8.208l-2.937-1.794a.598.598 0 0 1-.282-.502v-5.234h1.171v4.898l2.938 1.794a.6.6 0 0 1 .281.507v8.463zm-5.684-2.537c.45.205.761.654.761 1.18 0 .72-.579 1.304-1.293 1.304a1.3 1.3 0 0 1-1.294-1.305c0-.484.27-.902.656-1.127v-6.632l-.872-.885a.584.584 0 0 1-.176-.413v-5.246h1.17v4.998l.878.885c.111.112.17.26.17.419v6.822z" fill="#64EDC2"/></g></svg>