<svg width="110" height="110" viewBox="0 0 110 110" xmlns="http://www.w3.org/2000/svg"><g fill="none" fill-rule="evenodd"><circle fill="#81E4D9" fill-rule="nonzero" cx="55" cy="55" r="55"/><path d="M69.697 77.63c0 1.689-1.37 3.063-3.055 3.063H43.359a3.063 3.063 0 0 1-3.056-3.064v-4.373h29.394v4.373zM40.303 31.37a3.063 3.063 0 0 1 3.056-3.063h23.283a3.063 3.063 0 0 1 3.055 3.063v2.515H40.303V31.37zm0 40.579h29.394V35.192H40.303V71.95zM66.642 27C69.046 27 71 28.96 71 31.37v46.259C71 80.04 69.046 82 66.642 82H43.359A4.37 4.37 0 0 1 39 77.63V31.368A4.37 4.37 0 0 1 43.36 27h23.282zm-9.207 3.411h-4.869a.653.653 0 0 0-.651.654c0 .36.291.654.651.654h4.869c.36 0 .651-.293.651-.654a.653.653 0 0 0-.651-.654zM55 76.126a.948.948 0 0 1 0 1.894.947.947 0 0 1 0-1.894zm0 3.201a2.253 2.253 0 0 0 0-4.507 2.253 2.253 0 0 0 0 4.507z" fill="#FFF"/></g></svg>