<svg width="164" height="12" viewBox="0 0 164 12" xmlns="http://www.w3.org/2000/svg"><defs><linearGradient x1="0%" y1="50%" y2="50%" id="a"><stop stop-color="#49D2E6" offset="0%"/><stop stop-color="#2FD3B8" offset="100%"/></linearGradient></defs><path d="M883.02 73.199c3.098 0 5.036 1.608 5.036 4.21 0 2.585-1.938 4.193-5.036 4.193h-2.336v3.2H878V73.198h5.02zm-.15 6.215c1.641 0 2.47-.745 2.47-2.005 0-1.276-.829-2.022-2.47-2.022h-2.186v4.027h2.187zm17.529 5.387h-2.883l-2.236-3.232h-2.469v3.232h-2.684V73.2h5.02c3.098 0 5.037 1.608 5.037 4.21 0 1.74-.878 3.016-2.386 3.663l2.601 3.73zm-2.932-7.392c0-1.276-.829-2.022-2.469-2.022h-2.187v4.044h2.187c1.64 0 2.469-.762 2.469-2.022zM907.92 85c-3.662 0-6.346-2.552-6.346-6s2.684-6 6.346-6c3.644 0 6.345 2.536 6.345 6s-2.7 6-6.345 6zm0-2.287c2.07 0 3.628-1.509 3.628-3.713s-1.557-3.713-3.628-3.713-3.629 1.509-3.629 3.713 1.558 3.713 3.629 3.713zm8.366 2.088V73.2h5.269c3.793 0 6.394 2.287 6.394 5.801 0 3.514-2.6 5.801-6.394 5.801h-5.269zm2.684-2.204h2.452c2.303 0 3.81-1.376 3.81-3.597s-1.507-3.597-3.81-3.597h-2.452v7.194zM935.124 85c-3.297 0-5.252-1.89-5.252-5.304V73.2h2.684v6.398c0 2.204.961 3.116 2.585 3.116 1.64 0 2.584-.912 2.584-3.116v-6.398h2.651v6.497c0 3.414-1.955 5.304-5.252 5.304zm13.453 0c-3.595 0-6.28-2.503-6.28-6s2.685-6 6.296-6c2.005 0 3.678.73 4.772 2.055l-1.723 1.591c-.779-.895-1.756-1.359-2.916-1.359-2.17 0-3.711 1.525-3.711 3.713s1.54 3.713 3.71 3.713c1.16 0 2.138-.464 2.917-1.376l1.723 1.591C952.27 84.271 950.598 85 948.577 85zm8.996-.199v-9.414h-3.711v-2.188h10.106v2.188h-3.711V84.8h-2.684zm12.525 0V73.2h5.268c3.794 0 6.395 2.287 6.395 5.801 0 3.514-2.6 5.801-6.395 5.801h-5.268zm2.684-2.204h2.452c2.303 0 3.81-1.376 3.81-3.597s-1.507-3.597-3.81-3.597h-2.452v7.194zm13.668.05h6.312V84.8h-8.98V73.2h8.765v2.155h-6.097v2.519h5.384v2.088h-5.384v2.685zM997.3 84.8v-9.414h-3.71v-2.188h10.105v2.188h-3.71V84.8H997.3zm16.501 0l-1.027-2.486h-5.384l-1.027 2.486h-2.75l5.168-11.602h2.651l5.186 11.602h-2.817zm-5.55-4.525h3.678l-1.839-4.442-1.839 4.442zm9.576 4.525V73.2h2.684V84.8h-2.684zm5.434 0V73.2h2.684v9.414h5.815v2.188h-8.499zm13.818.199c-1.84 0-3.695-.547-4.722-1.343l.911-2.022c.977.713 2.435 1.21 3.827 1.21 1.59 0 2.237-.53 2.237-1.243 0-2.171-6.743-.68-6.743-4.989 0-1.972 1.59-3.613 4.887-3.613 1.458 0 2.95.348 4.026 1.028l-.828 2.038c-1.077-.613-2.187-.911-3.214-.911-1.59 0-2.204.596-2.204 1.326 0 2.138 6.743.663 6.743 4.922 0 1.94-1.607 3.597-4.92 3.597z" transform="translate(-878 -73)" fill="url(#a)" fill-rule="evenodd"/></svg>