<svg viewBox="0 0 414 103" width="414" height="103" xmlns="http://www.w3.org/2000/svg"><path d="M414 103H0V38.343c2.186-.097 4.502-.147 6.97-.147 24.008 0 33.58 8.286 48.511 14.162 14.932 5.877 49.096 5.877 65.71-8.385 16.614-14.261 20.46-22.102 42.561-34.078 14.98-8.117 34.206-13.952 52.546-5.835 18.605 8.234 26.839 18.885 39.301 29.4 12.463 10.513 34.942 21.225 64.635 15.699 29.692-5.527 34.93-30.69 61.173-39.264 13.697-4.476 24.031-3.583 32.593-.899V103z" fill="#F6F4FC" fill-rule="evenodd"/></svg>