<svg viewBox="0 0 1920 800" width="1920" height="800" xmlns="http://www.w3.org/2000/svg"><path d="M0 667.352V0h1920v769.07c-67.596 27.325-121.11 32.544-160.54 15.657-59.144-25.33-84.998-76.871-144.877-76.871-59.88 0-93.138 29.97-125.439 33.068-55.707 5.344-88.463-17.733-122.825-33.068-22.766-10.16-47.616-30.068-94.53-14.733s-56.278 60.34-109.36 70.224c-53.082 9.885-93.269-9.274-115.548-28.078-22.279-18.805-36.998-37.856-70.259-52.582-32.787-14.518-67.157-4.082-93.936 10.436-39.512 21.42-46.386 35.443-76.088 60.95-29.701 25.507-90.776 25.507-117.47 14.997-26.693-10.51-43.804-25.33-86.725-25.33-62.344 0-70.642 17.878-133.137 40.987-62.496 23.11-164.883 21.607-214.61-15.657-49.726-37.265-76.654-77.698-136.182-101.718-33.88-13.671-66.7 8.553-86.343 8.553-13.094 0-23.805-2.851-32.131-8.553z" fill="#FFF" fill-rule="evenodd"/></svg>