<svg width="56" height="56" viewBox="0 0 56 56" xmlns="http://www.w3.org/2000/svg"><defs><linearGradient x1="6.116%" y1="6.905%" x2="95.02%" y2="91.749%" id="a"><stop stop-color="#00FFCD" offset="0%"/><stop stop-color="#00D4E4" offset="100%"/></linearGradient><linearGradient x1="1.879%" y1="40.27%" x2="105.235%" y2="40.27%" id="b"><stop stop-color="#B620B4" offset="0%"/><stop stop-color="#7437BC" offset="100%"/></linearGradient><radialGradient cx="-19.513%" cy="89.587%" fx="-19.513%" fy="89.587%" r="140.969%" gradientTransform="matrix(.8478 -.46281 .44911 .89944 -.432 0)" id="c"><stop stop-color="#B620B4" offset="0%"/><stop stop-color="#3726AF" offset="100%"/></radialGradient></defs><g fill="none" fill-rule="evenodd"><path d="M53.547 14.8a13.798 13.798 0 0 0-1.479-1.83S43.252 3.105 28.308.388c-4.09-.925-8.604-.208-12.446 2.32-3.841 2.528-6.204 6.377-6.876 10.433-3.035 14.603 2.88 26.319 2.92 26.375.326.698.71 1.377 1.152 2.038 3.668 5.339 10.43 7.47 16.653 5.735 0 0 10.084-2.434 21.397-13.47 5.359-5.019 6.53-13.037 2.44-19.017z" fill="url(#a)" opacity=".9"/><path d="M44.94 33.597c0-.72-.059-1.42-.176-2.12 0 0-1.585-11.809-11.563-21.29-2.641-2.725-6.476-4.447-10.74-4.447-4.266 0-8.1 1.703-10.722 4.428C1.78 19.63.176 31.401.176 31.458a12.35 12.35 0 0 0-.176 2.1c0 5.848 4.07 10.807 9.724 12.604 0 0 8.98 3.18 23.399.511 6.71-1.078 11.817-6.528 11.817-13.076z" fill="url(#b)" opacity=".9"/><path d="M45.637 15.499a14.09 14.09 0 0 0-2.039-.801s-11.626-4.006-24.918.362a14.702 14.702 0 0 0-8.94 7.325c-1.921 3.7-2.078 7.821-.765 11.35 4.235 12.972 14.39 19.724 14.45 19.762.588.42 1.195.783 1.862 1.107 5.411 2.67 11.842 1.373 16.057-2.728 0 0 6.999-6.371 11.057-20.125 2.02-6.352-.706-13.257-6.764-16.252z" fill="url(#c)" opacity=".9"/><path d="M7.7 25.187h1.207v4.837h1.917v1.21H7.7v-6.047zm5.37 6.046h-1.208v-6.046h1.207v6.046zm3.562 0h-1.207v-4.837h-1.503v-1.2h4.213v1.2h-1.503v4.837zm4.618 0h-1.207v-4.837H18.54v-1.2h4.213v1.2H21.25v4.837zm2.415-6.046h1.207v4.837h1.917v1.21h-3.124v-6.047zm7.286 6.046h-3.124v-6.046h3.022v1.21h-1.815v1.208h1.587v1.21h-1.587v1.209h1.917v1.21zm4.035.085c4.154 0 4.154-6.233 0-6.233s-4.154 6.233 0 6.233zm0-1.252c2.415 0 2.415-3.738 0-3.738-2.414 0-2.414 3.738 0 3.738zm5.454-2.122v3.29h-1.207V25.06h.32l3.048 3.552v-3.417h1.216v6.165h-.32l-3.057-3.416zm7.86 3.29h-3.124v-6.047H48.2v1.21h-1.815v1.208h1.587v1.21h-1.587v1.209H48.3v1.21z" fill="#FFF"/></g></svg>