<svg width="161" height="12" viewBox="0 0 161 12" xmlns="http://www.w3.org/2000/svg"><defs><linearGradient x1="0%" y1="50%" y2="50%" id="a"><stop stop-color="#49D2E6" offset="0%"/><stop stop-color="#2FD3B8" offset="100%"/></linearGradient></defs><path d="M890.172 84.801l-1.025-2.486h-5.376l-1.025 2.486H880l5.16-11.602h2.647l5.177 11.602h-2.812zm-5.54-4.525h3.671l-1.836-4.442-1.836 4.442zm14.57-7.077c3.094 0 5.029 1.608 5.029 4.21 0 2.585-1.935 4.193-5.028 4.193h-2.332v3.2h-2.68V73.198h5.012zm-.148 6.215c1.637 0 2.464-.745 2.464-2.005 0-1.276-.827-2.022-2.464-2.022h-2.183v4.027h2.183zM911.31 73.2c3.093 0 5.028 1.608 5.028 4.21 0 2.585-1.935 4.193-5.028 4.193h-2.332v3.2h-2.68V73.198h5.012zm-.149 6.215c1.638 0 2.465-.745 2.465-2.005 0-1.276-.827-2.022-2.465-2.022h-2.183v4.027h2.183zm11.926 5.387V73.2h2.68V84.8h-2.68zM936.484 73.2h2.646V84.8h-2.2l-5.772-7.044V84.8h-2.646V73.2h2.216l5.756 7.044V73.2zm7.79 11.602v-9.414h-3.705v-2.188h10.09v2.188h-3.705V84.8h-2.68zm10.487-2.155h6.301v2.155h-8.964V73.2h8.75v2.155h-6.087v2.519h5.375v2.088h-5.375v2.685zm16.258-.43v-3.398h2.448v4.707c-1.273.961-3.026 1.475-4.68 1.475-3.64 0-6.319-2.503-6.319-6s2.68-6 6.368-6c2.035 0 3.722.696 4.846 2.006l-1.72 1.59c-.843-.894-1.82-1.309-2.994-1.309-2.249 0-3.787 1.509-3.787 3.713 0 2.171 1.538 3.713 3.754 3.713.728 0 1.406-.133 2.084-.498zm15.184 2.585h-2.878l-2.233-3.232h-2.464v3.232h-2.68V73.2h5.012c3.093 0 5.028 1.608 5.028 4.21 0 1.74-.877 3.016-2.382 3.663l2.597 3.73zm-2.927-7.392c0-1.276-.827-2.022-2.465-2.022h-2.183v4.044h2.183c1.638 0 2.465-.762 2.465-2.022zm13.48 7.392l-1.026-2.486h-5.375l-1.026 2.486h-2.745l5.16-11.602h2.646l5.177 11.602h-2.811zm-5.541-4.525h3.672l-1.836-4.442-1.836 4.442zm11.958 4.525v-9.414h-3.705v-2.188h10.09v2.188h-3.705V84.8h-2.68zm7.824 0V73.2h2.679V84.8h-2.68zm11.032.199c-3.656 0-6.335-2.552-6.335-6s2.68-6 6.335-6c3.638 0 6.334 2.536 6.334 6s-2.696 6-6.334 6zm0-2.287c2.067 0 3.622-1.509 3.622-3.713s-1.555-3.713-3.622-3.713c-2.068 0-3.623 1.509-3.623 3.713s1.555 3.713 3.623 3.713zm16.325-9.514H1041V84.8h-2.2l-5.772-7.044V84.8h-2.647V73.2h2.217l5.756 7.044V73.2z" transform="translate(-880 -73)" fill="url(#a)" fill-rule="evenodd"/></svg>