<svg width="110" height="110" viewBox="0 0 110 110" xmlns="http://www.w3.org/2000/svg"><g fill="none" fill-rule="evenodd"><circle fill="#8AE0ED" fill-rule="nonzero" cx="55" cy="55" r="55"/><path d="M67.572 61.993c0 3.328-2.712 6.035-6.046 6.035H48.474c-3.334 0-6.046-2.707-6.046-6.035V43.41c0-3.327 2.712-6.034 6.046-6.034h13.052c3.334 0 6.046 2.707 6.046 6.034v18.583zm14.261-22.51A3.167 3.167 0 0 1 85 42.643v27.779c0 1.742-1.42 3.16-3.167 3.16h-8.675l-.012-.002C71.038 77.403 66.965 80 62.293 80H47.707c-4.67 0-8.743-2.595-10.85-6.417h-8.69A3.168 3.168 0 0 1 25 70.422V42.644a3.168 3.168 0 0 1 3.167-3.161h7.513C36.983 34.054 41.874 30 47.707 30h14.586c5.835 0 10.726 4.054 12.03 9.483h7.51zm1.44 30.939V42.644a1.44 1.44 0 0 0-1.44-1.437h-7.22c.038.38.06.762.06 1.15v25.287c0 1.482-.276 2.897-.757 4.215h7.917a1.44 1.44 0 0 0 1.44-1.437zm-20.98 7.854c5.874 0 10.652-4.77 10.652-10.632V42.356c0-5.862-4.778-10.632-10.652-10.632H47.707c-5.873 0-10.652 4.77-10.652 10.632v25.288c0 5.863 4.779 10.632 10.652 10.632h14.586zm-.767-42.624c4.287 0 7.774 3.48 7.774 7.758v18.583c0 4.278-3.487 7.759-7.774 7.759H48.474c-4.286 0-7.773-3.48-7.773-7.759V43.41c0-4.278 3.487-7.758 7.773-7.758h13.052zm-33.36 36.207h7.92a12.244 12.244 0 0 1-.759-4.215V42.356c0-.387.025-.769.06-1.15h-7.22a1.44 1.44 0 0 0-1.44 1.438v27.778a1.44 1.44 0 0 0 1.44 1.437z" fill="#FFF"/></g></svg>