<svg width="110" height="110" viewBox="0 0 110 110" xmlns="http://www.w3.org/2000/svg"><g fill="none" fill-rule="evenodd"><circle fill="#8AE0ED" fill-rule="nonzero" cx="55" cy="55" r="55"/><path d="M77.206 63.11a.628.628 0 0 1-.627.625H64.635a.898.898 0 0 0-.899.898v11.944c0 .345-.28.627-.627.627H46.893a.629.629 0 0 1-.627-.627V64.633a.897.897 0 0 0-.898-.898H33.423a.635.635 0 0 1-.627-.626V46.891c0-.34.287-.627.627-.627h11.945a.897.897 0 0 0 .898-.898V33.422c0-.345.282-.626.627-.626h16.216c.346 0 .627.28.627.626v11.944c0 .497.403.898.899.898h11.944c.345 0 .627.282.627.627v16.218zm-.627-18.642H65.532V33.422A2.425 2.425 0 0 0 63.11 31H46.893a2.425 2.425 0 0 0-2.423 2.422v11.046H33.423A2.426 2.426 0 0 0 31 46.89v16.218a2.426 2.426 0 0 0 2.423 2.422H44.47v11.046A2.425 2.425 0 0 0 46.893 79h16.216a2.425 2.425 0 0 0 2.423-2.423V65.53H76.58a2.425 2.425 0 0 0 2.423-2.422V46.891a2.426 2.426 0 0 0-2.423-2.423z" fill="#FFF"/></g></svg>