<svg width="110" height="110" viewBox="0 0 110 110" xmlns="http://www.w3.org/2000/svg"><g fill="none" fill-rule="evenodd"><circle fill="#8AE0ED" fill-rule="nonzero" cx="55" cy="55" r="55"/><path d="M54.607 36.029a.787.787 0 0 1-.789-.783v-7.464a.788.788 0 0 1 1.577 0v7.464a.787.787 0 0 1-.788.783zm9.687 2.79a.794.794 0 0 1-1.113.039.78.78 0 0 1-.04-1.106l4.235-4.514a.794.794 0 0 1 1.113-.039.78.78 0 0 1 .04 1.106l-4.235 4.513zm-18.588 0l-4.234-4.514a.78.78 0 0 1 .04-1.106.795.795 0 0 1 1.114.039l4.234 4.514a.78.78 0 0 1-.04 1.106.795.795 0 0 1-1.114-.04zm25.962 37.408A2.326 2.326 0 0 1 74 78.542v2.143A2.325 2.325 0 0 1 71.668 83H38.333A2.326 2.326 0 0 1 36 80.685v-2.143a2.327 2.327 0 0 1 2.333-2.315h2.037V54.104c0-8.006 6.563-14.52 14.63-14.52s14.63 6.514 14.63 14.52v22.123h2.038zm.642 4.458v-2.143a.641.641 0 0 0-.642-.637H38.333a.64.64 0 0 0-.642.637v2.143c0 .346.293.637.642.637h33.335a.64.64 0 0 0 .642-.637zm-30.249-4.458h3.469V73.07H42.06v3.156zM55 41.262c-7.134 0-12.939 5.76-12.939 12.842v17.29H67.94v-17.29c0-7.081-5.805-12.842-12.94-12.842zm-7.779 34.965h2.781V73.07h-2.78v3.156zm4.472 0h2.78V73.07h-2.78v3.156zm4.472 0h2.782V73.07h-2.782v3.156zm4.473 0h2.781V73.07h-2.781v3.156zm4.472 0h2.83V73.07h-2.83v3.156z" fill="#FFF"/></g></svg>