<svg width="110" height="110" viewBox="0 0 110 110" xmlns="http://www.w3.org/2000/svg"><g fill="none" fill-rule="evenodd"><circle fill="#8AE0ED" fill-rule="nonzero" cx="55" cy="55" r="55"/><path d="M76.495 67.88H33.506a1.998 1.998 0 0 1-1.996-1.996v-3.496h46.98v3.495c0 1.1-.894 1.996-1.995 1.996M58.5 76.39h8.125v1.761h-23.25v-1.762H51.5a.754.754 0 0 0 .754-.755v-6.245h5.49v6.245c0 .418.338.755.755.755M33.506 33.51h42.989c1.1 0 1.996.895 1.996 1.996v25.373H31.51V35.505c0-1.1.895-1.995 1.996-1.995M76.495 32A3.509 3.509 0 0 1 80 35.506v30.378a3.509 3.509 0 0 1-3.505 3.505h-17.24v5.491h8.125c.417 0 .755.337.755.754v3.273a.755.755 0 0 1-.755.754H42.62a.754.754 0 0 1-.754-.754v-3.273c0-.416.337-.754.755-.754h8.125v-5.49h-17.24A3.51 3.51 0 0 1 30 65.883V35.504A3.51 3.51 0 0 1 33.506 32h42.989zM57.08 64.268h-4.162a.754.754 0 1 0 0 1.509h4.162a.755.755 0 1 0 0-1.51zm10.785-18.038h-6.187c-.21 0-.4.139-.479.334l-1.45 3.633-1.178-5.096a.516.516 0 0 0-1.006.008l-2.89 9.238-1.764-15.876a.515.515 0 0 0-.429-.463.509.509 0 0 0-.555.29l-3.989 8.963h-5.851a.516.516 0 0 0 0 1.031h6.186c.204 0 .389-.11.471-.296l3.317-7.456 1.885 15.763a.517.517 0 0 0 .481.47c.274.002.485-.165.537-.403l3.118-9.624 1.031 5.291c.051.22.238.381.463.398a.523.523 0 0 0 .518-.332l1.933-4.842h5.838a.516.516 0 1 0 0-1.03z" fill="#FFF"/></g></svg>