<?xml version="1.0" encoding="UTF-8"?>
<svg width="110px" height="110px" viewBox="0 0 110 110" version="1.1" xmlns="http://www.w3.org/2000/svg" xmlns:xlink="http://www.w3.org/1999/xlink">
    <!-- Generator: sketchtool 52.2 (67145) - http://www.bohemiancoding.com/sketch -->
    <title>BB2CBDCD-FFF6-4A03-A170-39CAC7FFEAB6</title>
    <desc>Created with sketchtool.</desc>
    <g id="Page-1" stroke="none" stroke-width="1" fill="none" fill-rule="evenodd">
        <g id="Temperature" transform="translate(-371.000000, -66.000000)">
            <g id="Web_Bottle2_Icon1-2" transform="translate(371.000000, 66.000000)">
                <circle id="Oval" fill="#8AE0ED" fill-rule="nonzero" cx="55" cy="55" r="55"></circle>
                <path d="M19.5,43.5294118 C18.4799949,43.5294118 17.5506709,43.6880158 16.712,44.0052288 C15.8733291,44.3224417 15.1650029,44.7642673 14.587,45.330719 C14.0089971,45.8971706 13.5613349,46.5712379 13.244,47.3529412 C12.9266651,48.1346444 12.768,48.9786447 12.768,49.8849673 C12.768,50.8592641 12.9209985,51.737251 13.227,52.5189542 C13.5330015,53.3006575 13.9636639,53.9690604 14.519,54.524183 C15.0743361,55.0793056 15.7373295,55.504138 16.508,55.7986928 C17.2786705,56.0932477 18.1173288,56.2405229 19.024,56.2405229 C20.0893387,56.2405229 21.0356625,56.0592611 21.863,55.696732 C22.6903375,55.334203 23.3929971,54.8583907 23.971,54.269281 C24.5490029,53.6801713 24.9909985,53.0174329 25.297,52.2810458 C25.6030015,51.5446586 25.756,50.7912893 25.756,50.020915 C25.756,49.0919344 25.6086681,48.2309408 25.314,47.4379085 C25.0193319,46.6448762 24.6000027,45.95948 24.056,45.3816993 C23.5119973,44.8039187 22.8546705,44.3507642 22.084,44.0222222 C21.3133295,43.6936803 20.4520048,43.5294118 19.5,43.5294118 Z M22.288,58.0418301 C22.6733353,57.5660107 23.0189985,57.1298495 23.325,56.7333333 C23.6310015,56.3368172 23.8973322,55.9459714 24.124,55.5607843 C23.4439966,56.2178682 22.6223382,56.7503248 21.659,57.1581699 C20.6956619,57.5660151 19.6700054,57.7699346 18.582,57.7699346 C17.4713278,57.7699346 16.451338,57.5830084 15.522,57.2091503 C14.592662,56.8352922 13.79367,56.3085001 13.125,55.6287582 C12.45633,54.9490162 11.9350019,54.1333381 11.561,53.1816993 C11.1869981,52.2300606 11,51.1651475 11,49.9869281 C11,48.8313668 11.203998,47.7664537 11.612,46.7921569 C12.020002,45.8178601 12.5979963,44.9738598 13.346,44.2601307 C14.0940037,43.5464017 14.9836615,42.9912874 16.015,42.5947712 C17.0463385,42.1982551 18.1966603,42 19.466,42 C20.6673393,42 21.7609951,42.1925907 22.747,42.5777778 C23.7330049,42.9629649 24.5829964,43.5180792 25.297,44.2431373 C26.0110036,44.9681953 26.5606647,45.8575111 26.946,46.9111111 C27.3313353,47.9647112 27.524,49.1485773 27.524,50.4627451 C27.524,51.482358 27.2746692,52.6152443 26.776,53.8614379 C26.2773308,55.1076315 25.4386726,56.5237393 24.26,58.1098039 L16.984,67.8980392 L14.74,67.8980392 L22.288,58.0418301 Z M39.118,66.4026144 C40.0700048,66.4026144 40.9313295,66.2779969 41.702,66.0287582 C42.4726705,65.7795195 43.1413305,65.4169958 43.708,64.9411765 C44.2746695,64.4653571 44.7109985,63.8875851 45.017,63.2078431 C45.3230015,62.5281012 45.476,61.7690674 45.476,60.930719 C45.476,59.8431318 45.2776687,58.9424872 44.881,58.2287582 C44.4843314,57.5150291 43.9743365,56.948586 43.351,56.5294118 C42.7276635,56.1102376 42.0420037,55.8100227 41.294,55.6287582 C40.5459963,55.4474936 39.8206702,55.3568627 39.118,55.3568627 C38.4379966,55.3568627 37.7240037,55.4474936 36.976,55.6287582 C36.2279963,55.8100227 35.5423364,56.1102376 34.919,56.5294118 C34.2956636,56.948586 33.7856686,57.5150291 33.389,58.2287582 C32.9923314,58.9424872 32.794,59.8431318 32.794,60.930719 C32.794,61.7690674 32.9469985,62.5281012 33.253,63.2078431 C33.5590015,63.8875851 33.9896639,64.4653571 34.545,64.9411765 C35.1003361,65.4169958 35.7633295,65.7795195 36.534,66.0287582 C37.3046705,66.2779969 38.1659952,66.4026144 39.118,66.4026144 Z M33.61,48.6614379 C33.61,49.3411799 33.7176656,49.986925 33.933,50.5986928 C34.1483344,51.2104606 34.4769978,51.7485816 34.919,52.2130719 C35.3610022,52.6775622 35.9333298,53.0514147 36.636,53.3346405 C37.3386702,53.6178663 38.1659952,53.7594771 39.118,53.7594771 C40.0700048,53.7594771 40.8973298,53.6178663 41.6,53.3346405 C42.3026702,53.0514147 42.8749978,52.6775622 43.317,52.2130719 C43.7590022,51.7485816 44.0876656,51.2104606 44.303,50.5986928 C44.5183344,49.986925 44.626,49.3411799 44.626,48.6614379 C44.626,47.9590379 44.5070012,47.3019638 44.269,46.6901961 C44.0309988,46.0784283 43.6740024,45.5516362 43.198,45.1098039 C42.7219976,44.6679716 42.1440034,44.3167769 41.464,44.0562092 C40.7839966,43.7956414 40.0020044,43.6653595 39.118,43.6653595 C38.2339956,43.6653595 37.4520034,43.7956414 36.772,44.0562092 C36.0919966,44.3167769 35.519669,44.6679716 35.055,45.1098039 C34.590331,45.5516362 34.2333346,46.0784283 33.984,46.6901961 C33.7346654,47.3019638 33.61,47.9590379 33.61,48.6614379 Z M46.428,48.6614379 C46.428,50.066238 46.0483371,51.2784263 45.289,52.2980392 C44.5296629,53.3176522 43.4700068,54.0426994 42.11,54.4732026 C43.6286743,54.8583897 44.8809951,55.5834369 45.867,56.648366 C46.8530049,57.7132951 47.346,59.1520607 47.346,60.9647059 C47.346,62.029635 47.142002,62.9869239 46.734,63.8366013 C46.325998,64.6862788 45.759337,65.411326 45.034,66.0117647 C44.308663,66.6122034 43.4416717,67.0766868 42.433,67.4052288 C41.4243283,67.7337707 40.3193393,67.8980392 39.118,67.8980392 C37.9166607,67.8980392 36.8173383,67.7337707 35.82,67.4052288 C34.8226617,67.0766868 33.961337,66.6122034 33.236,66.0117647 C32.510663,65.411326 31.9496687,64.6862788 31.553,63.8366013 C31.1563314,62.9869239 30.958,62.029635 30.958,60.9647059 C30.958,59.1294026 31.4339952,57.6849726 32.386,56.6313725 C33.3380048,55.5777725 34.5959922,54.8583897 36.16,54.4732026 C34.82266,54.0200413 33.7686705,53.2780008 32.998,52.2470588 C32.2273295,51.2161168 31.842,50.0209218 31.842,48.6614379 C31.842,47.7777734 32.0119983,46.9394375 32.352,46.1464052 C32.6920017,45.3533729 33.1736636,44.6679767 33.797,44.0901961 C34.4203365,43.5124154 35.1796622,43.0535965 36.075,42.7137255 C36.9703378,42.3738545 37.984661,42.2039216 39.118,42.2039216 C40.2286722,42.2039216 41.2373288,42.3738545 42.144,42.7137255 C43.0506712,43.0535965 43.8213302,43.5124154 44.456,44.0901961 C45.0906698,44.6679767 45.5779983,45.3533729 45.918,46.1464052 C46.2580017,46.9394375 46.428,47.7777734 46.428,48.6614379 Z M53.364,67.8980392 C52.9106644,67.8980392 52.5083351,67.7337707 52.157,67.4052288 C51.8056649,67.0766868 51.63,66.6291967 51.63,66.0627451 C51.63,65.4736354 51.8056649,65.0148165 52.157,64.6862745 C52.5083351,64.3577326 52.9106644,64.1934641 53.364,64.1934641 C53.8173356,64.1934641 54.2196649,64.3577326 54.571,64.6862745 C54.9223351,65.0148165 55.098,65.4736354 55.098,66.0627451 C55.098,66.6291967 54.9223351,67.0766868 54.571,67.4052288 C54.2196649,67.7337707 53.8173356,67.8980392 53.364,67.8980392 Z M67.576,66.4705882 C68.5960051,66.4705882 69.5253291,66.3119842 70.364,65.9947712 C71.2026709,65.6775583 71.9109971,65.2357327 72.489,64.669281 C73.0670029,64.1028294 73.5146651,63.4287621 73.832,62.6470588 C74.1493349,61.8653556 74.308,61.0213553 74.308,60.1150327 C74.308,59.1407359 74.1550015,58.262749 73.849,57.4810458 C73.5429985,56.6993425 73.1123361,56.0309396 72.557,55.475817 C72.0016639,54.9206944 71.3386705,54.495862 70.568,54.2013072 C69.7973295,53.9067523 68.9586712,53.7594771 68.052,53.7594771 C66.9866613,53.7594771 66.0403375,53.9407389 65.213,54.303268 C64.3856625,54.665797 63.6830029,55.1416093 63.105,55.730719 C62.5269971,56.3198287 62.0850015,56.9825671 61.779,57.7189542 C61.4729985,58.4553414 61.32,59.2087107 61.32,59.979085 C61.32,60.9080656 61.4673319,61.7690592 61.762,62.5620915 C62.0566681,63.3551238 62.4759973,64.04052 63.02,64.6183007 C63.5640027,65.1960813 64.2213295,65.6492358 64.992,65.9777778 C65.7626705,66.3063197 66.6239952,66.4705882 67.576,66.4705882 Z M64.788,51.9581699 C64.4026647,52.4339893 64.0570015,52.8701505 63.751,53.2666667 C63.4449985,53.6631828 63.1786678,54.0540286 62.952,54.4392157 C63.6320034,53.7821318 64.4536619,53.2496752 65.417,52.8418301 C66.3803382,52.4339849 67.4059946,52.2300654 68.494,52.2300654 C69.6046722,52.2300654 70.624662,52.4169916 71.554,52.7908497 C72.483338,53.1647078 73.28233,53.6914999 73.951,54.3712418 C74.61967,55.0509838 75.1409981,55.8666619 75.515,56.8183007 C75.8890019,57.7699394 76.076,58.8348525 76.076,60.0130719 C76.076,61.1686332 75.872002,62.2335463 75.464,63.2078431 C75.055998,64.1821399 74.4780037,65.0261402 73.73,65.7398693 C72.9819963,66.4535983 72.0866719,67.0087126 71.044,67.4052288 C70.0013281,67.8017449 68.8566729,68 67.61,68 C66.4086607,68 65.3150049,67.8074093 64.329,67.4222222 C63.3429951,67.0370351 62.4930036,66.4819208 61.779,65.7568627 C61.0649964,65.0318047 60.5153353,64.1481534 60.13,63.1058824 C59.7446647,62.0636113 59.552,60.8740808 59.552,59.5372549 C59.552,58.517642 59.8013308,57.3847557 60.3,56.1385621 C60.7986692,54.8923685 61.6373274,53.4762607 62.816,51.8901961 L70.092,42.1019608 L72.336,42.1019608 L64.788,51.9581699 Z M83.256,55.7727028 C82.8399979,55.7727028 82.4440019,55.7007312 82.068,55.5567859 C81.6919981,55.4128405 81.3600014,55.2049225 81.072,54.9330258 C80.7839986,54.661129 80.5560008,54.3292599 80.388,53.9374087 C80.2199992,53.5455574 80.136,53.1017326 80.136,52.6059208 C80.136,52.0941151 80.2199992,51.638295 80.388,51.2384468 C80.5560008,50.8385985 80.7839986,50.4987327 81.072,50.2188389 C81.3600014,49.9389452 81.6919981,49.7270288 82.068,49.5830834 C82.4440019,49.4391381 82.8399979,49.3671665 83.256,49.3671665 C83.656002,49.3671665 84.0439981,49.4391381 84.42,49.5830834 C84.7960019,49.7270288 85.1279986,49.9389452 85.416,50.2188389 C85.7040014,50.4987327 85.9319992,50.8385985 86.1,51.2384468 C86.2680008,51.638295 86.352,52.0941151 86.352,52.6059208 C86.352,53.1017326 86.2680008,53.5455574 86.1,53.9374087 C85.9319992,54.3292599 85.7040014,54.661129 85.416,54.9330258 C85.1279986,55.2049225 84.7960019,55.4128405 84.42,55.5567859 C84.0439981,55.7007312 83.656002,55.7727028 83.256,55.7727028 Z M83.256,54.8370627 C83.864003,54.8370627 84.363998,54.6291447 84.756,54.2133026 C85.148002,53.7974604 85.344,53.2616719 85.344,52.6059208 C85.344,51.9341758 85.148002,51.386392 84.756,50.9625529 C84.363998,50.5387138 83.864003,50.3267974 83.256,50.3267974 C82.6319969,50.3267974 82.1280019,50.5387138 81.744,50.9625529 C81.3599981,51.386392 81.168,51.9341758 81.168,52.6059208 C81.168,53.2616719 81.3599981,53.7974604 81.744,54.2133026 C82.1280019,54.6291447 82.6319969,54.8370627 83.256,54.8370627 Z M89.952,50.0628989 L99.624,50.0628989 L99.624,51.3823914 L91.488,51.3823914 L91.488,57.9558631 L98.376,57.9558631 L98.376,59.2753556 L91.488,59.2753556 L91.488,67.4562092 L89.952,67.4562092 L89.952,50.0628989 Z" id="98.6℉" fill="#FFFFFF"></path>
            </g>
        </g>
    </g>
</svg>