<svg width="110" height="110" viewBox="0 0 110 110" xmlns="http://www.w3.org/2000/svg"><g fill="none" fill-rule="evenodd"><circle fill="#8AE0ED" fill-rule="nonzero" cx="55" cy="55" r="55"/><path d="M24.855 48.257c.214-1.091.558-2.081 1.034-2.97a8.327 8.327 0 0 1 1.781-2.295 7.64 7.64 0 0 1 2.441-1.476c.915-.344 1.907-.516 2.976-.516.997 0 1.947.142 2.85.427a6.827 6.827 0 0 1 2.37 1.28 6.262 6.262 0 0 1 1.621 2.117c.404.842.606 1.808.606 2.9 0 1.636-.457 2.97-1.372 4.001-.915 1.032-2.06 1.75-3.439 2.152v.072c1.83.403 3.201 1.168 4.116 2.294.915 1.127 1.372 2.52 1.372 4.18 0 1.09-.22 2.099-.66 3.024a7.353 7.353 0 0 1-1.817 2.4 8.528 8.528 0 0 1-2.708 1.584c-1.033.38-2.156.569-3.367.569-1.473 0-2.708-.213-3.706-.64-.998-.427-1.823-.973-2.476-1.637a7.9 7.9 0 0 1-1.55-2.223A18.385 18.385 0 0 1 24 61.099c.285-.119.6-.225.944-.32.345-.095.66-.202.945-.32l.07.355c.12.45.298.99.535 1.619a6.107 6.107 0 0 0 1.105 1.814c.499.581 1.152 1.073 1.96 1.476s1.84.605 3.1.605c1.093 0 2.055-.178 2.886-.534.832-.355 1.527-.818 2.085-1.387a5.673 5.673 0 0 0 1.247-1.885c.273-.688.41-1.376.41-2.064 0-.782-.149-1.505-.446-2.17-.297-.663-.76-1.245-1.39-1.743-.629-.498-1.437-.895-2.422-1.191-.986-.297-2.156-.457-3.51-.48v-1.495c2.233-.07 3.979-.587 5.238-1.547 1.259-.96 1.888-2.259 1.888-3.895 0-.925-.154-1.72-.463-2.384a4.65 4.65 0 0 0-1.23-1.636 4.925 4.925 0 0 0-1.799-.943 7.574 7.574 0 0 0-2.138-.302c-.831 0-1.585.13-2.262.391a6.075 6.075 0 0 0-1.8 1.067c-.523.451-.962.985-1.318 1.601a6.508 6.508 0 0 0-.749 1.992l-.142.783-1.889-.25zm37.7-6.759v1.28l-12.471 24.76h-2.138L59.99 44.059c.166-.308.356-.593.57-.853H45.523v-1.708h17.032zm6.486 14.49c-.412 0-.804-.071-1.176-.213a2.966 2.966 0 0 1-1.675-1.601 3.176 3.176 0 0 1-.261-1.316c0-.506.087-.957.261-1.352.174-.395.404-.731.689-1.008.285-.277.614-.486.986-.628a3.264 3.264 0 0 1 2.328 0c.372.142.7.351.986.628.285.277.51.613.677 1.008.166.395.25.846.25 1.352 0 .49-.084.929-.25 1.316a2.912 2.912 0 0 1-.677.984 2.966 2.966 0 0 1-.986.617 3.2 3.2 0 0 1-1.152.213zm0-.925c.602 0 1.096-.205 1.484-.616.388-.411.582-.941.582-1.59 0-.663-.194-1.205-.582-1.624-.388-.419-.882-.628-1.484-.628-.618 0-1.117.21-1.497.628-.38.42-.57.96-.57 1.625 0 .648.19 1.178.57 1.589.38.41.88.616 1.497.616zm12.828 12.783c-1.077 0-2.067-.206-2.97-.617a6.544 6.544 0 0 1-2.328-1.778c-.65-.775-1.152-1.712-1.508-2.81-.357-1.1-.535-2.337-.535-3.712 0-1.376.182-2.613.547-3.712.364-1.098.875-2.031 1.532-2.798a6.66 6.66 0 0 1 2.364-1.767c.918-.41 1.924-.616 3.017-.616 1.013 0 1.908.21 2.684.628.776.419 1.41.897 1.9 1.435l-.902.972a5.201 5.201 0 0 0-1.592-1.233c-.602-.3-1.29-.45-2.067-.45-.902 0-1.718.173-2.447.521-.728.348-1.35.85-1.864 1.506-.515.656-.907 1.447-1.176 2.372-.27.924-.404 1.964-.404 3.118s.135 2.198.404 3.13c.269.933.653 1.728 1.152 2.384a5.122 5.122 0 0 0 1.83 1.518c.72.355 1.523.533 2.41.533.887 0 1.66-.17 2.316-.51.658-.34 1.287-.841 1.889-1.505l.879.948c-.665.775-1.41 1.376-2.233 1.803-.824.426-1.79.64-2.898.64z" fill="#FFF"/></g></svg>