<svg width="110" height="110" viewBox="0 0 110 110" xmlns="http://www.w3.org/2000/svg"><g fill="none" fill-rule="evenodd"><circle fill="#8AE0ED" fill-rule="nonzero" cx="55" cy="55" r="55"/><path d="M55.5 70.29c-8.494 0-15.406-6.978-15.406-15.554 0-8.577 6.912-15.554 15.406-15.554 8.495 0 15.406 6.977 15.406 15.554 0 8.576-6.911 15.554-15.406 15.554m21.638-27.826l-4.185-4.224-1.22 1.232c3.699 4.009 5.983 9.366 5.983 15.264 0 7.082-3.277 13.398-8.37 17.51l2.18 5.103a.799.799 0 0 1-.412 1.045l-3.537 1.541a.78.78 0 0 1-.603.01.796.796 0 0 1-.433-.424l-1.872-4.38a21.856 21.856 0 0 1-9.169 2.024c-3.476 0-6.754-.834-9.686-2.276l-2.43 4.685a.787.787 0 0 1-1.01.361l-3.539-1.54a.796.796 0 0 1-.389-1.095l2.761-5.419a22.466 22.466 0 0 1-7.922-17.145c0-5.898 2.284-11.255 5.984-15.262l-1.222-1.234-4.184 4.224a.782.782 0 0 1-1.115 0c-2.33-2.352-2.33-6.182 0-8.537l2.142-2.162a5.947 5.947 0 0 1 8.456 0 .801.801 0 0 1 0 1.125l-4.184 4.225 1.22 1.233c3.97-3.735 9.277-6.041 15.118-6.041 5.841 0 11.149 2.306 15.119 6.041l1.22-1.233-4.185-4.225a.803.803 0 0 1 0-1.125 5.948 5.948 0 0 1 8.457 0l2.14 2.162c2.332 2.355 2.332 6.185 0 8.537a.778.778 0 0 1-1.113 0zm-2.142-9.574a4.38 4.38 0 0 0-5.62-.512l8.268 8.35c1.19-1.733 1.02-4.134-.506-5.675l-2.142-2.163zM55.5 75.574c11.38 0 20.64-9.348 20.64-20.838S66.88 33.898 55.5 33.898s-20.64 9.348-20.64 20.838 9.26 20.838 20.64 20.838zm0-37.983c9.364 0 16.982 7.691 16.982 17.145S64.864 71.88 55.5 71.88c-9.364 0-16.981-7.69-16.981-17.145 0-9.454 7.617-17.145 16.981-17.145zm14.267 39.658l-1.72-4.022c-.63.438-1.28.85-1.957 1.222l1.586 3.71 2.09-.91zm-27.441.933l2.094-4.035a22.212 22.212 0 0 1-1.943-1.28l-2.243 4.404 2.092.911zm-8.97-37.455l8.268-8.35a4.367 4.367 0 0 0-2.505-.787 4.372 4.372 0 0 0-3.115 1.3l-2.141 2.163c-1.527 1.54-1.697 3.942-.508 5.674zM55.5 55.885a1.145 1.145 0 0 1-1.138-1.148c0-.635.51-1.15 1.138-1.15.629 0 1.138.515 1.138 1.15 0 .633-.51 1.148-1.138 1.148zm7.46-1.944h-4.876a2.72 2.72 0 0 0-1.796-1.813v-7.78a.792.792 0 0 0-.788-.796.792.792 0 0 0-.788.796v7.78a2.73 2.73 0 0 0-1.926 2.609c0 1.51 1.217 2.74 2.714 2.74 1.221 0 2.244-.824 2.584-1.945h4.876a.792.792 0 0 0 .788-.795.791.791 0 0 0-.788-.796z" fill="#FFF"/></g></svg>