<svg width="110" height="110" viewBox="0 0 110 110" xmlns="http://www.w3.org/2000/svg"><g fill="none" fill-rule="evenodd"><circle fill="#8AE0ED" fill-rule="nonzero" cx="55" cy="55" r="55"/><path d="M40.16 66.588v1.767H26.404v-1.767h6.089V45.271c0-.417.024-.872.073-1.362l-5.429 4.896L26 47.48l6.896-6.112h1.578v25.22h5.686zm22.274-11.634c0 2.38-.256 4.449-.77 6.204-.513 1.755-1.21 3.203-2.09 4.344-.881 1.141-1.914 1.994-3.1 2.559a8.723 8.723 0 0 1-3.797.847 8.605 8.605 0 0 1-3.779-.847c-1.173-.565-2.2-1.418-3.081-2.559-.88-1.141-1.571-2.59-2.073-4.344-.5-1.755-.752-3.823-.752-6.204s.251-4.449.752-6.204c.502-1.755 1.193-3.203 2.073-4.344.88-1.142 1.908-1.995 3.081-2.56A8.605 8.605 0 0 1 52.677 41c1.345 0 2.61.282 3.796.847 1.187.564 2.22 1.417 3.1 2.559.88 1.141 1.578 2.59 2.091 4.344.514 1.755.77 3.823.77 6.204zm-1.98 0c0-2.185-.208-4.05-.624-5.596-.416-1.547-.978-2.81-1.687-3.793-.71-.981-1.535-1.7-2.477-2.153a6.796 6.796 0 0 0-2.99-.682 6.717 6.717 0 0 0-2.952.682c-.942.454-1.767 1.172-2.476 2.153-.71.982-1.278 2.246-1.706 3.793-.428 1.546-.642 3.411-.642 5.596 0 2.209.214 4.087.642 5.633.428 1.546.996 2.81 1.706 3.792.709.982 1.534 1.694 2.476 2.136a6.871 6.871 0 0 0 2.953.662c1.051 0 2.048-.22 2.99-.662.94-.442 1.766-1.154 2.476-2.136.709-.982 1.271-2.246 1.687-3.792.416-1.546.624-3.424.624-5.633zm15.158 5.277a9.373 9.373 0 0 1-3.29-2 8.08 8.08 0 0 1-2.09-3.105 8.694 8.694 0 0 1-2.201 3.485 10.094 10.094 0 0 1-3.424 2.21l-.685-1.032a9.255 9.255 0 0 0 3.95-2.773 7.737 7.737 0 0 0 1.222-2.062 6.341 6.341 0 0 0 .453-2.381v-1.497h-5.16v-1.08h11.567v1.08H70.82v1.472c0 .753.142 1.473.428 2.16a7.263 7.263 0 0 0 1.161 1.903 8.194 8.194 0 0 0 1.724 1.534c.66.442 1.366.793 2.116 1.055l-.636 1.031zm-1.859 8.714c.88 0 1.671-.066 2.372-.197.701-.13 1.305-.319 1.81-.564.505-.246.893-.54 1.162-.884a1.86 1.86 0 0 0 .403-1.178 1.86 1.86 0 0 0-.403-1.178c-.27-.344-.657-.638-1.162-.884-.505-.245-1.109-.434-1.81-.564a12.993 12.993 0 0 0-2.372-.197c-.864 0-1.65.066-2.36.197-.709.13-1.312.319-1.81.564-.497.246-.88.54-1.149.884a1.86 1.86 0 0 0-.403 1.178c0 .442.134.834.403 1.178.27.344.652.638 1.15.884.497.245 1.1.433 1.81.564.708.131 1.495.197 2.36.197zm0-6.701c2.185 0 3.9.335 5.148 1.006 1.247.671 1.87 1.628 1.87 2.872s-.623 2.2-1.87 2.872c-1.247.67-2.963 1.006-5.148 1.006-2.184 0-3.896-.335-5.135-1.006-1.24-.671-1.859-1.628-1.859-2.872s.62-2.201 1.859-2.872c1.239-.67 2.95-1.006 5.135-1.006zM84 54.119v1.13h-3.4v6.283h-1.295V48.278H80.6v5.841H84z" fill="#FFF"/></g></svg>