<svg width="110" height="110" viewBox="0 0 110 110" xmlns="http://www.w3.org/2000/svg"><g fill="none" fill-rule="evenodd"><circle fill="#8AE0ED" fill-rule="nonzero" cx="55" cy="55" r="55"/><path d="M29.352 44.855V40.3c0-.561.456-1.018 1.017-1.018h8.537c.56 0 1.016.457 1.016 1.018v4.556c0 .562-.456 1.018-1.016 1.018h-8.537a1.018 1.018 0 0 1-1.017-1.018zm2.432-9.091a3.414 3.414 0 0 1 3.409-3.412h39.57c1.88 0 3.409 1.53 3.409 3.412v2.165h-7.077a2.372 2.372 0 0 0-2.368 2.37v4.556a2.372 2.372 0 0 0 2.368 2.37h7.077v6.451a16.711 16.711 0 0 0-2.258-.17c-9.073 0-16.454 7.386-16.454 16.466 0 2.409.513 4.722 1.511 6.886a23.125 23.125 0 0 1-11.986 0 16.309 16.309 0 0 0 1.511-6.886c0-9.08-7.381-16.465-16.453-16.465-.756 0-1.512.065-2.259.168v-6.45h7.122a2.372 2.372 0 0 0 2.368-2.37V40.3a2.372 2.372 0 0 0-2.368-2.37h-7.122v-2.165zm48.865 4.535v4.556c0 .562-.456 1.018-1.017 1.018h-8.537c-.56 0-1.016-.456-1.016-1.018V40.3c0-.561.456-1.018 1.016-1.018h8.537c.561 0 1.017.457 1.017 1.018zM62.277 76.464a14.964 14.964 0 0 1-1.465-6.492c0-8.333 6.774-15.113 15.102-15.113.751 0 1.502.067 2.243.177-.255 9.987-6.838 18.42-15.88 21.428zm-30.478-21.43c.741-.11 1.492-.175 2.244-.175 8.328 0 15.102 6.78 15.102 15.113 0 2.277-.497 4.459-1.467 6.491-9.042-3.008-15.625-11.442-15.879-21.429zM54.978 79c13.534 0 24.546-11.02 24.546-24.563v-7.212h.108A2.371 2.371 0 0 0 82 44.855V40.3a2.371 2.371 0 0 0-2.368-2.37h-.108v-2.165A4.768 4.768 0 0 0 74.763 31h-39.57a4.767 4.767 0 0 0-4.76 4.764v2.165h-.064A2.372 2.372 0 0 0 28 40.3v4.556a2.372 2.372 0 0 0 2.369 2.37h.064v7.212C30.433 67.98 41.444 79 54.978 79z" fill="#FFF"/></g></svg>