<svg viewBox="0 0 134 116" width="134" height="116" xmlns="http://www.w3.org/2000/svg"><g fill="none" fill-rule="evenodd"><path d="M0 0h134v116H0z"/><path d="M32.934 28C30.277 28 28 30.253 28 32.88v45.24c0 2.627 2.277 4.88 4.934 4.88h68.132c2.657 0 4.934-2.253 4.934-4.88V32.88c-.19-2.627-2.277-4.88-4.934-4.88H32.934z" fill="#3726AF"/><path d="M102 76.62c0 .19-.195.38-.39.38H32.39c-.195 0-.39-.19-.39-.38V32.38c0-.19.195-.38.39-.38h69.025c.195 0 .39.19.39.38v44.24H102z" fill="#FFF"/><path d="M54 83h46.993c2.696 0 5.007-2.253 5.007-4.88V32.88c0-2.627-2.311-4.88-5.007-4.88H75.956L54 83z" opacity=".3" fill="#8CDDFF"/><g fill="#ABD0D9"><path d="M80.514 65.977H70.3c-.186 0-.557-.19-.557-.573 0-.192.186-.574.557-.574h10.214c.186 0 .557.191.557.574-.185.382-.371.573-.557.573zM80.514 60.431H70.3c-.186 0-.557-.191-.557-.573 0-.192.186-.574.557-.574h10.214c.186 0 .557.191.557.573-.185.383-.371.574-.557.574zM80.514 54.885H70.3c-.186 0-.557-.191-.557-.574 0-.191.186-.573.557-.573h10.214c.186 0 .557.19.557.573-.185.383-.371.574-.557.574zM80.514 49.339H70.3c-.186 0-.557-.192-.557-.574 0-.191.186-.574.557-.574h10.214c.186 0 .557.192.557.574-.185.382-.371.574-.557.574z"/></g><g fill="#ABD0D9"><path d="M93.7 65.977H83.486c-.186 0-.557-.19-.557-.573 0-.192.185-.574.557-.574H93.7c.186 0 .557.191.557.574 0 .382-.186.573-.557.573zM93.7 60.431H83.486c-.186 0-.557-.191-.557-.573 0-.192.185-.574.557-.574H93.7c.186 0 .557.191.557.573 0 .383-.186.574-.557.574zM93.7 54.885H83.486c-.186 0-.557-.191-.557-.574 0-.191.185-.573.557-.573H93.7c.186 0 .557.19.557.573 0 .383-.186.574-.557.574zM93.7 49.339H83.486c-.186 0-.557-.192-.557-.574 0-.191.185-.574.557-.574H93.7c.186 0 .557.192.557.574 0 .382-.186.574-.557.574z"/></g><path d="M94.65 43.83h-24.3c-.193 0-.579-.255-.579-.765s.193-.765.579-.765h24.3c.193 0 .579.255.579.765s-.193.765-.579.765z" fill="#71DBD4"/><path d="M53.028 56.596c1.36-1.156 2.139-3.275 2.139-5.394 0-3.275-2.14-5.202-4.667-5.202-2.528 0-4.667 1.927-4.667 5.202 0 2.12.778 4.238 2.14 5.394.971.964.388 2.505-.584 2.698-4.278.77-7.389 3.082-7.389 5.009C40 66.422 44.667 67 50.5 67S61 66.615 61 64.303c0-1.734-3.111-4.046-7.389-5.01-1.167-.192-1.555-1.733-.583-2.697z" fill="#B765D2"/><path d="M63.205 3C63 2.85 63 2.7 63 2.7L67.295 0h.41l1.636 1.05V.6c0-.15.204-.15.204-.15h1.023c.205 0 .205.15.205.15v1.2L72 2.7V3h-.41l-1.226-1.05V1.8s0-.15.204-.15v-.9h-.409v.6s0 .15-.204.15h-.205L67.91.45 63.204 3zM69.73 8h-1.72c-.19 0-.19-.158-.19-.158V6.263H66.1v1.58c0 .157-.191.157-.191.157h-1.719C64 8 64 7.842 64 7.842V5.158C64 5 64.191 5 64.191 5c.191 0 .191.158.191.158v2.526h1.337V6.105c0-.158.191-.158.191-.158h2.1c.192 0 .192.158.192.158v1.58h1.337V5.157c0-.158.19-.158.19-.158.192 0 .192.158.192.158v2.684c.19 0 0 .158-.191.158z" fill="#FFF"/><ellipse cx="16.689" cy="17.102" rx="16.657" ry="16.691" opacity=".74" transform="translate(53.997 65.897)" fill="#FFF"/><path d="M70.686 101.965c-10.411 0-18.929-8.535-18.929-18.967 0-10.431 8.518-18.966 18.929-18.966 10.41 0 18.928 8.535 18.928 18.966 0 10.432-8.518 18.967-18.928 18.967zm0-33.192c-7.761 0-14.197 6.449-14.197 14.225s6.436 14.225 14.197 14.225c7.76 0 14.196-6.449 14.196-14.225s-6.436-14.225-14.196-14.225z" fill="#FFF"/><path d="M70.686 100.827c-9.843 0-17.793-7.966-17.793-17.829 0-9.862 7.95-17.828 17.793-17.828s17.793 7.966 17.793 17.828c0 9.863-7.95 17.829-17.793 17.829zm0-33.192c-8.518 0-15.332 6.828-15.332 15.363 0 8.345 6.814 15.363 15.332 15.363s15.332-6.828 15.332-15.363-7.004-15.363-15.332-15.363z" fill="#9855CA"/><path d="M91.129 97.982c-1.136-1.138-2.083-.759-3.029.19l-4.543-4.553-2.271 2.276 4.543 4.552c-.947.949-1.325 1.897-.19 3.035l11.357 11.38c.758.759 1.704 1.138 2.65 1.138.947 0 1.893-.38 2.65-1.138 1.704-1.517 1.704-3.983.19-5.5l-11.357-11.38z" fill="#9855CA"/><g transform="translate(0 46)" fill-rule="nonzero"><circle fill="#C8EFF2" cx="11" cy="11" r="11"/><ellipse fill="#FFF" cx="11" cy="11.458" rx="6.417" ry="5.958"/><circle fill="#FFF" cx="4.583" cy="11.917" r="1"/><circle fill="#FFF" cx="17.417" cy="11.917" r="1"/><path d="M17.551 10.234c-.046 0-.093.002-.138.006a6.589 6.589 0 0 0-3.456-4.722 2.542 2.542 0 0 0 1.41-2.28.486.486 0 0 0-.484-.488.486.486 0 0 0-.483.488c0 .64-.383 1.19-.93 1.431.278-.407.44-.9.44-1.43a.486.486 0 0 0-.483-.489.486.486 0 0 0-.484.488c0 .86-.693 1.561-1.546 1.561H11c-3.207 0-5.88 2.354-6.413 5.441a1.71 1.71 0 0 0-1.837 1.71 1.71 1.71 0 0 0 1.769 1.713c.244 2.136 2.045 3.8 4.224 3.8.63.563 1.43.87 2.278.87.848 0 1.65-.307 2.279-.87 2.16-.022 3.939-1.678 4.181-3.8l.07.002a1.71 1.71 0 0 0 1.699-1.715 1.71 1.71 0 0 0-1.699-1.716zm-13.06 1.14v1.313a.736.736 0 0 1-.773-.738.736.736 0 0 1 .774-.737 6.746 6.746 0 0 0-.002.162zm12.052 1.793c0 1.83-1.474 3.32-3.286 3.32-.038 0-.079-.002-.128-.004a.48.48 0 0 0-.36.143 2.445 2.445 0 0 1-1.748.73c-.66 0-1.282-.26-1.75-.731a.481.481 0 0 0-.365-.143c-.055.003-.11.004-.163.004-1.812 0-3.286-1.489-3.286-3.319v-1.793c0-3.087 2.487-5.598 5.543-5.598s5.543 2.51 5.543 5.598v1.793zm1.008-.478c-.014 0-.028 0-.041-.002v-1.313l-.002-.162a.736.736 0 0 1 .775.738c0 .407-.328.739-.732.739z" fill="#4BA3CC"/><path d="M13.65 13.018a.491.491 0 0 0-.676-.088l-.35.26a2.738 2.738 0 0 1-3.249 0l-.35-.26a.491.491 0 0 0-.676.088.463.463 0 0 0 .09.66l.35.26c.632.47 1.417.729 2.211.729.794 0 1.58-.259 2.21-.729l.35-.26a.463.463 0 0 0 .09-.66z" fill="#4BA3CC"/><circle fill="#4BA3CC" cx="8.708" cy="10.542" r="1"/><circle fill="#4BA3CC" cx="13.292" cy="10.542" r="1"/></g><g fill-rule="nonzero"><path d="M67.5 19l8.699-8.609A6.037 6.037 0 0 0 78 6.087C78 2.725 75.246 0 71.85 0a6.164 6.164 0 0 0-4.35 1.783A6.166 6.166 0 0 0 63.15 0C59.755 0 57 2.725 57 6.087c0 1.681.688 3.203 1.801 4.304l8.7 8.609z" fill="#A0EAF0"/><path d="M67.499 19.057l8.76-8.721C77.427 9.234 78 7.768 78 6.087 78 2.725 75.115 0 71.557 0c-2.425 0-4.058 1.84-4.058 1.84v17.217z" fill="#71DBD4"/><path fill="#FFF" d="M71 7.192h-2.192V5h-2.616v2.192H64v2.615h2.192V12h2.616V9.807H71z"/><path fill="#F1F1F1" d="M71 7.192h-1.998V5h-1.494v7h1.494V9.807H71z"/></g><g fill-rule="nonzero"><path d="M102.626 17.72a7.325 7.325 0 1 1 13.56-3.735 7.454 7.454 0 0 1-7.522 7.214h-6.76l.712-1.209c.423-.697.427-1.57.01-2.27z" fill="#FFF"/><path d="M121.375 23.997a7.324 7.324 0 0 0-5.263-11.095c.052.359.076.72.074 1.083a7.454 7.454 0 0 1-7.523 7.214h-.764a7.491 7.491 0 0 0 7.44 6.277h6.758l-.712-1.208a2.203 2.203 0 0 1-.01-2.27z" fill="#E4DBFF"/><g fill="#B765D2"><path d="M121.835 26a1.67 1.67 0 0 1 0-1.726 7.847 7.847 0 0 0-5.23-11.822 7.846 7.846 0 0 0-2.345-4.295 7.772 7.772 0 0 0-6.026-2.13 7.846 7.846 0 0 0-6.052 11.965 1.67 1.67 0 0 1 0 1.726l-.727 1.214a.523.523 0 0 0 .45.79h5.566a8.03 8.03 0 0 0 7.847 6.277h6.78a.523.523 0 0 0 .45-.79l-.713-1.208zm-19.015-5.325l.25-.423a2.715 2.715 0 0 0 0-2.81 6.8 6.8 0 1 1 12.592-3.468 6.931 6.931 0 0 1-6.999 6.701h-5.843zm12.518 6.278a6.984 6.984 0 0 1-6.8-5.231h.125a7.983 7.983 0 0 0 8.046-7.732v-.455a6.8 6.8 0 0 1 4.237 10.185 2.715 2.715 0 0 0 0 2.81l.251.423h-5.859z"/><path d="M109.442 12.614c0 .523-.491.858-1.752.91l-.052.053.23 1.621h1.046l.11-.612c1.067-.188 1.93-.711 1.93-1.993 0-1.329-.978-2.092-2.422-2.092a3.14 3.14 0 0 0-2.448 1.082l.92 1.01a2.06 2.06 0 0 1 1.502-.69c.596 0 .937.261.937.711zM107.538 15.991h1.622v1.601h-1.622z"/></g></g><g fill-rule="nonzero"><g fill="#C09FF0"><path d="M16.893 11.353a1.394 1.394 0 0 1-1.386-1.402v12.615c0 .41.174.778.45 1.034.247.228.575.367.936.367h9.694V11.353h-9.694zM29.746 9.008a.348.348 0 0 0-.347-.35h-.692a.348.348 0 0 0-.347.35v1.752h1.386V9.008z"/></g><g fill="#9855CA"><path d="M26.588 8h-9.832A1.749 1.749 0 0 0 15 9.738V22.25c.001.96.787 1.737 1.756 1.738h9.832a.35.35 0 0 0 .352-.347V8.348A.35.35 0 0 0 26.588 8zm-9.832.695h9.481v.695h-8.779v.696h8.78v.695h-9.482a1.048 1.048 0 0 1-1.054-1.043c0-.576.472-1.043 1.054-1.043zm0 14.599a1.048 1.048 0 0 1-1.054-1.043V11.12c.302.23.673.356 1.054.357h9.481v11.818h-9.481z"/><path d="M18.863 14.604h4.214v.695h-4.214v-.695zM17.81 16.69h6.32v.695h-6.32zM29.398 8.348h-.703a.699.699 0 0 0-.702.695v12.86c0 .054.012.108.035.156l.703 1.39a.353.353 0 0 0 .628 0l.703-1.39a.345.345 0 0 0 .038-.155V9.043a.699.699 0 0 0-.702-.695zm0 .695v1.39h-.703v-1.39h.703zM29.18 22.25h-.269l-.217-.43V11.129h.703v10.694l-.217.43z"/></g></g><g transform="translate(114 47)" fill-rule="nonzero"><circle fill="#9AE2DD" cx="10" cy="10" r="10"/><path d="M12.11 5.15a.677.677 0 0 0-.488.189V3.622c0-.22-.189-.41-.41-.41H9.529c.11.127.189.3.189.489a.756.756 0 0 1-1.512 0c0-.19.063-.362.189-.488H6.709c-.22 0-.41.189-.41.409v1.717a.75.75 0 0 1 .488-.19.756.756 0 0 1 0 1.512.677.677 0 0 1-.488-.189V8.11c0 .22.19.41.41.41h1.685a.75.75 0 0 0-.19.488.756.756 0 0 0 1.513 0 .677.677 0 0 0-.19-.488h1.686c.22 0 .409-.19.409-.41V6.472c.126.11.3.19.488.19.41 0 .756-.331.756-.756a.766.766 0 0 0-.756-.756z" fill="#3726AF"/><path d="M17.087 11.764a.751.751 0 0 0-.489-.205l1.197-1.244c.158-.158.158-.425-.015-.567l-1.213-1.165a.76.76 0 0 1-.205.472.746.746 0 1 1-1.07-1.04.7.7 0 0 1 .472-.22l-1.197-1.197c-.158-.157-.425-.157-.567.016l-1.197 1.244a.842.842 0 0 1 .488.205.746.746 0 1 1-1.039 1.07.7.7 0 0 1-.22-.472L10.85 9.843c-.157.157-.157.425.016.566l1.213 1.166a.778.778 0 0 0-.473.22.746.746 0 1 0 1.071 1.04.72.72 0 0 0 .205-.489l1.212 1.166c.158.157.426.157.567-.016l1.15-1.181a.778.778 0 0 0 .22.472c.3.284.772.284 1.056-.015.299-.252.299-.725 0-1.008z" fill="#FFF"/><path d="M9.606 14.346a.751.751 0 0 0-.488-.204l1.197-1.244c.157-.158.157-.426-.016-.567l-1.212-1.166a.76.76 0 0 1-.205.473.746.746 0 1 1-1.071-1.04.7.7 0 0 1 .472-.22L7.071 9.213c-.158-.158-.425-.158-.567.015l-1.197 1.244a.842.842 0 0 1 .488.205.746.746 0 1 1-1.04 1.071.7.7 0 0 1-.22-.472l-1.15 1.18c-.157.158-.157.426.017.568l1.212 1.165a.778.778 0 0 0-.472.22.746.746 0 1 0 1.07 1.04.72.72 0 0 0 .205-.488l1.213 1.165c.157.157.425.157.567-.016l1.15-1.18a.778.778 0 0 0 .22.472c.3.283.772.283 1.055-.016.284-.268.284-.756-.016-1.04z" fill="#9855CA"/></g></g></svg>