<svg viewBox="0 0 120 120" width="120" height="120" xmlns="http://www.w3.org/2000/svg"><g fill="none" fill-rule="evenodd"><path d="M0 0h120v120H0z"/><path d="M62.2 120h-.732v-.36h2.378v.36H62.2zm-3.292 0c-.732 0-1.646-.18-2.378-.18v-.36c.732 0 1.646.18 2.378.18v.36zm7.315-.18v-.36c.732 0 1.646-.18 2.377-.18v.36c-.731.18-1.463.18-2.377.18zm-12.07-.36c-.732-.18-1.646-.18-2.377-.359v-.36c.731.18 1.645.36 2.377.36v.36zm17.008-.18v-.359c.731-.18 1.646-.36 2.377-.539v.36c-.731.36-1.646.36-2.377.539zm-21.763-.718c-.731-.18-1.646-.36-2.377-.54l.183-.359c.731.18 1.645.36 2.377.54l-.183.359zm26.518-.18l-.183-.36c.731-.18 1.646-.359 2.377-.718l.183.359c-.731.18-1.646.36-2.377.72zm-31.273-1.258c-.731-.18-1.463-.54-2.377-.9l.183-.359c.731.36 1.463.54 2.194.9v.359zm35.845-.18l-.183-.36c.731-.18 1.463-.539 2.194-.898l.183.36c-.548.179-1.28.538-2.194.898zm-40.417-1.438l-2.194-1.079.183-.36 2.194 1.08-.183.359zm44.989-.54l-.183-.359 2.194-1.079.183.36-2.194 1.079zm-49.378-1.617c-.731-.36-1.463-.72-2.012-1.259l.183-.36c.732.36 1.463.9 2.012 1.26l-.183.359zm53.584-.54l-.183-.36c.732-.359 1.463-.898 2.012-1.258l.183.36c-.549.36-1.28.899-2.012 1.258zm-57.607-1.977c-.732-.36-1.28-.899-2.012-1.438l.183-.36c.731.54 1.28.9 2.012 1.438l-.183.36zm61.813-.72l-.183-.359c.732-.539 1.28-.899 2.012-1.438l.183.36c-.732.539-1.463 1.078-2.012 1.438zm-65.837-2.336c-.548-.54-1.28-1.079-1.828-1.618l.182-.36c.55.54 1.28 1.08 1.83 1.618l-.184.36zm69.678-.54l-.183-.359c.548-.54 1.28-1.079 1.829-1.618l.365.36c-.914.539-1.463 1.078-2.011 1.618zM24.16 104.72c-.549-.54-1.098-1.079-1.646-1.798l.366-.18c.548.54 1.097 1.079 1.645 1.798l-.365.18zm76.626-.72l-.365-.359c.548-.539 1.097-1.078 1.646-1.797l.365.18c-.548.718-1.097 1.438-1.646 1.977zm-79.918-2.875c-.549-.54-1.097-1.259-1.463-1.798l.366-.18c.548.54.914 1.258 1.463 1.798l-.366.18zm83.21-.72l-.366-.18c.55-.539.915-1.258 1.463-1.797l.366.18c-.548.54-.914 1.078-1.463 1.797zM17.943 97.35c-.549-.719-.915-1.258-1.28-1.977l.365-.18c.366.72.915 1.259 1.28 1.978l-.365.18zm89.062-.898l-.365-.18c.365-.72.914-1.259 1.28-1.978l.365.18c-.365.72-.914 1.438-1.28 1.978zM15.2 93.215l-1.098-2.157.366-.18 1.097 2.157-.365.18zm94.366-.899l-.366-.18 1.097-2.157.366.18c-.366.899-.732 1.618-1.097 2.157zM13.005 88.9c-.366-.719-.732-1.438-.914-2.157l.365-.18c.366.72.549 1.439.915 2.158l-.366.18zm98.572-.898l-.365-.18c.365-.72.548-1.438.914-2.157l.366.18c-.183.718-.549 1.438-.915 2.157zm-100.4-3.416c-.184-.719-.55-1.438-.732-2.337l.365-.18c.183.72.55 1.438.732 2.337l-.366.18zm102.23-1.079l-.367-.18c.183-.718.549-1.437.732-2.336l.366.18c-.366.898-.55 1.617-.732 2.336zM9.895 79.912c-.183-.719-.366-1.618-.549-2.337h.366c.183.72.366 1.618.549 2.337h-.366zm104.79-.899h-.366c.183-.719.366-1.618.55-2.337h.365c-.183.72-.366 1.438-.549 2.337zM8.8 75.238c-.183-.719-.183-1.618-.366-2.337h.366c0 .72.183 1.618.366 2.337h-.366zM115.6 74.16h-.366c.183-.72.183-1.618.183-2.337h.366c0 .898-.183 1.618-.183 2.337zM8.25 70.564c0-.719 0-1.618-.184-2.337h.366c0 .72 0 1.618.183 2.337H8.25zm107.715-1.078h-.365V65.17h.365v4.315zM8.616 65.71H8.25c0-.72 0-1.618.183-2.337h.366c0 .719-.183 1.618-.183 2.337zm106.802-3.056c0-.72-.183-1.618-.183-2.337h.366c.183.719.183 1.617.183 2.337h-.366zM8.982 61.037h-.366c.183-.72.183-1.618.366-2.337h.365c-.182.719-.182 1.438-.365 2.337zm105.887-3.056c-.183-.72-.366-1.618-.549-2.337h.366c.183.719.366 1.618.549 2.337h-.366zM9.713 56.183h-.366c.183-.72.366-1.618.549-2.337l.366.18-.549 2.157zm104.059-2.876c-.183-.72-.366-1.618-.732-2.337l.366-.18c.183.719.549 1.618.732 2.337l-.366.18zM10.993 51.689l-.365-.18c.182-.719.548-1.618.731-2.337l.366.18c-.183.719-.549 1.618-.732 2.337zm101.316-2.876c-.366-.72-.549-1.439-.915-2.158l.366-.18c.366.72.549 1.439.915 2.158l-.366.18zm-99.67-1.618l-.366-.18c.366-.72.55-1.438.915-2.157l.366.18c-.366.719-.732 1.438-.915 2.157zm97.841-2.697l-1.097-2.157.365-.18 1.098 2.157-.366.18zM14.65 42.88l-.365-.18 1.097-2.157.366.18-1.097 2.157zm93.453-2.696c-.366-.72-.915-1.438-1.28-1.978l.365-.18c.366.72.915 1.259 1.28 1.978l-.365.18zm-91.075-1.438l-.365-.18c.365-.72.914-1.258 1.28-1.978l.366.18c-.366.54-.732 1.259-1.28 1.978zm88.514-2.517c-.548-.72-.914-1.258-1.463-1.978l.366-.18c.549.54.914 1.26 1.463 1.978l-.366.18zM19.954 34.79l-.365-.18c.548-.54 1.097-1.258 1.463-1.798l.365.18c-.548.54-1.097 1.258-1.463 1.798zm82.48-2.157c-.55-.54-1.098-1.259-1.647-1.798l.366-.36c.549.54 1.097 1.259 1.646 1.798l-.366.36zm-79.37-1.439l-.366-.36c.548-.538 1.097-1.078 1.646-1.797l.365.36c-.548.719-1.097 1.258-1.646 1.797zm76.077-2.157c-.548-.539-1.097-1.078-1.828-1.618l.183-.36c.548.54 1.28 1.08 1.828 1.619l-.183.36zM26.538 27.96l-.183-.36c.549-.54 1.28-1.078 1.829-1.618l.183.36c-.732.54-1.28 1.078-1.829 1.618zm68.946-1.978c-.549-.54-1.28-.899-2.012-1.438l.183-.36c.732.54 1.28.9 2.012 1.439l-.183.36zm-65.288-1.078l-.183-.36c.731-.54 1.28-.899 2.011-1.438l.183.36c-.731.539-1.28.898-2.011 1.438zm61.447-1.798c-.731-.36-1.28-.899-2.011-1.258l.183-.36c.731.36 1.463.899 2.011 1.258l-.183.36zm-57.424-.899l-.183-.36c.732-.359 1.463-.898 2.195-1.258l.183.36c-.732.36-1.463.899-2.195 1.258zm53.218-1.438l-2.194-1.079.182-.36 2.195 1.08-.183.359zm-49.012-.899l-.183-.36 2.195-1.078.183.36-2.195 1.078zm44.623-1.258c-.732-.36-1.463-.54-2.195-.899l.183-.36c.732.36 1.463.54 2.195.9l-.183.359zm-40.234-.54l-.182-.359c.731-.36 1.463-.54 2.377-.899l.183.36c-.732.36-1.646.539-2.378.899zm35.662-1.078c-.732-.18-1.463-.54-2.377-.72l.182-.359c.732.18 1.646.36 2.378.72l-.183.359zm-31.09-.54l-.182-.359c.731-.18 1.645-.36 2.377-.54l.183.36c-.732.18-1.463.36-2.378.54zm26.518-.718c-.732-.18-1.646-.36-2.377-.54v-.36c.731.18 1.645.36 2.377.54v.36zm-21.763-.36v-.36c.732-.18 1.646-.36 2.378-.36v.36c-.732.18-1.463.18-2.378.36zm16.825-.36c-.731-.18-1.646-.18-2.377-.18v-.359c.731 0 1.646.18 2.377.18v.36zm-12.07-.36v-.359c.732 0 1.646-.18 2.378-.18v.36c-.732.18-1.463.18-2.378.18zm7.315-.179H61.834v-.36h2.56l-.183.36z" fill="#71DBD4"/><g transform="translate(11 24)" fill-rule="nonzero"><circle fill="#FFF" cx="9" cy="9" r="7"/><path d="M16.147 8.164c-.051 0-.101.003-.151.007a7.188 7.188 0 0 0-3.77-5.152A2.774 2.774 0 0 0 13.764.533.53.53 0 0 0 13.236 0a.53.53 0 0 0-.527.533c0 .697-.418 1.298-1.013 1.56.301-.444.478-.982.478-1.56A.53.53 0 0 0 11.647 0a.53.53 0 0 0-.527.533c0 .939-.757 1.703-1.686 1.703H9c-3.498 0-6.414 2.568-6.996 5.935A1.865 1.865 0 0 0 0 10.036a1.864 1.864 0 0 0 1.93 1.87c.266 2.33 2.23 4.144 4.608 4.144.687.614 1.56.95 2.485.95.925 0 1.8-.336 2.486-.95 2.356-.024 4.297-1.83 4.561-4.145a1.864 1.864 0 0 0 1.93-1.87 1.865 1.865 0 0 0-1.853-1.87zM1.898 9.408v1.433a.803.803 0 0 1-.844-.805.803.803 0 0 1 .847-.805 7.359 7.359 0 0 0-.003.177zm13.149 1.957c0 1.996-1.608 3.62-3.585 3.62l-.139-.003a.525.525 0 0 0-.393.155 2.667 2.667 0 0 1-1.907.798 2.667 2.667 0 0 1-1.908-.8.525.525 0 0 0-.399-.155c-.06.003-.12.005-.178.005-1.977 0-3.585-1.624-3.585-3.62V9.408C2.953 6.04 5.666 3.3 9 3.3c3.334 0 6.047 2.74 6.047 6.107v1.957zm1.1-.523l-.045-.001V9.408c0-.06-.001-.118-.003-.177a.803.803 0 0 1 .846.805.803.803 0 0 1-.798.806z" fill="#4BA3CC"/><path d="M11.892 11.202a.536.536 0 0 0-.738-.097l-.382.284a2.987 2.987 0 0 1-3.544 0l-.382-.284a.536.536 0 0 0-.738.097.505.505 0 0 0 .1.72l.38.283A4.064 4.064 0 0 0 9 13c.866 0 1.723-.282 2.411-.795l.382-.284a.505.505 0 0 0 .099-.72z" fill="#4BA3CC"/><circle fill="#4BA3CC" cx="6.5" cy="8.5" r="1"/><circle fill="#4BA3CC" cx="11.5" cy="8.5" r="1"/></g><path d="M96.1 57.786H26.559c-2.745 0-4.94 2.145-4.94 4.827v45.584c0 2.682 2.195 4.827 4.94 4.827h69.543c2.745 0 4.941-2.145 4.941-4.827V62.613c0-2.503-2.196-4.827-4.941-4.827z" fill="#2C6980"/><path d="M96.1 56.356H26.559c-2.745 0-4.94 2.145-4.94 4.827v45.584c0 2.681 2.195 4.827 4.94 4.827h69.543c2.745 0 4.941-2.146 4.941-4.827V61.183c0-2.503-2.196-4.827-4.941-4.827z" fill="#3726AF"/><path fill="#E4DBFF" d="M26.375 61.361H96.1v43.082H26.375z"/><path d="M12.284 106.767v3.575c0 1.788 1.464 3.397 3.477 3.397h91.137c1.83 0 3.477-1.43 3.477-3.397v-3.575H12.284z" fill="#7CB4DA"/><path fill="#C1E6E3" d="M12.284 106.767h97.908v3.575H12.284z"/><path d="M51.264 106.767v.358c0 .357.366.715.732.715h18.667c.366 0 .732-.358.732-.715v-.358h-20.13z" fill="#1FC3CC"/><path d="M34.188 97.117v-65.34c0-.904.729-1.628 1.64-1.628h35.157c.364 0 .91.18 1.275.543l16.941 16.832c.365.362.547.724.547 1.267v48.326c0 .905-.729 1.629-1.64 1.629h-52.28c-.911 0-1.64-.724-1.64-1.629z" fill="#3726AF"/><path fill="#FFF" d="M88.108 97.117h-52.28V31.959h35.34l16.94 16.832z"/><path fill="#71DBD4" d="M71.167 48.791V31.96L88.108 48.79z"/><path fill="#C8EFF2" d="M88.108 48.791v16.833L71.168 48.79z"/><path d="M80.093 58.927H56.412c-.546 0-.91-.362-.91-.905s.364-.905.91-.905h23.681c.547 0 .911.362.911.905s-.364.905-.91.905zM66.249 41.913H42.568c-.547 0-.911-.362-.911-.905s.364-.905.91-.905H66.25c.546 0 .91.362.91.905s-.364.905-.91.905zM59.144 46.8H42.568c-.547 0-.911-.362-.911-.905s.364-.905.91-.905h16.577c.547 0 .911.362.911.905s-.364.905-.91.905z" fill="#71DBD4"/><path d="M80.093 63.452H56.412c-.546 0-.91-.362-.91-.905s.364-.905.91-.905h23.681c.547 0 .911.362.911.905s-.364.905-.91.905z" fill="#ABD0D9"/><path d="M80.093 76.484H56.412c-.546 0-.91-.362-.91-.905s.364-.905.91-.905h23.681c.547 0 .911.362.911.905s-.364.905-.91.905z" fill="#71DBD4"/><path d="M80.093 81.37H56.412c-.546 0-.91-.362-.91-.905s.364-.905.91-.905h23.681c.547 0 .911.362.911.905s-.364.905-.91.905zM80.093 67.796H56.412c-.546 0-.91-.362-.91-.905s.364-.905.91-.905h23.681c.547 0 .911.362.911.905s-.364.905-.91.905zM80.093 85.533H56.412c-.546 0-.91-.362-.91-.905s.364-.905.91-.905h23.681c.547 0 .911.362.911.905s-.364.905-.91.905z" fill="#ABD0D9"/><path fill="#FFF" d="M42.567 75.76h9.108v9.05h-9.108z"/><path d="M51.676 85.533h-9.108c-.547 0-.911-.362-.911-.905v-9.05c0-.542.364-.904.91-.904h9.109c.546 0 .91.362.91.905v9.05c-.182.542-.546.904-.91.904zm-8.198-1.629h7.287v-7.24h-7.287v7.24z" fill="#BA9BC9"/><g><path fill="#FFF" d="M42.567 58.203h9.108v9.05h-9.108z"/><path d="M51.676 67.977h-9.108c-.547 0-.911-.362-.911-.905v-9.05c0-.543.364-.905.91-.905h9.109c.546 0 .91.362.91.905v9.05c-.182.543-.546.905-.91.905zm-8.198-1.63h7.287v-7.239h-7.287v7.24z" fill="#838BC5"/></g><path d="M46.597 67.563c-.18 0-.542-.183-.722-.367l-3.251-3.3c-.361-.367-.361-1.1 0-1.467.361-.366 1.084-.366 1.445 0l2.528 2.567 6.141-6.234c.361-.366 1.084-.366 1.445 0 .361.367.361 1.1 0 1.467l-6.863 6.967c-.18.367-.362.367-.723.367z" fill="#3726AF"/><g transform="translate(92 23)"><circle fill="#FFF" cx="16.5" cy="17.5" r="5.5"/><circle fill="#FFF" cx="6.5" cy="6.5" r="3.5"/><path d="M22.772 17.62v-.758c0-.19.178-.568.355-.757l1.597-1.137c.177-.19.355-.379.177-.758l-.532-1.515c-.177-.19-.355-.379-.71-.379l-1.774.379c-.177 0-.532 0-.71-.19l-.354-.378c-.178-.19-.355-.568-.178-.758l.355-1.894c0-.19 0-.568-.355-.758l-1.419-.568c-.177 0-.532 0-.71.19l-1.064 1.704c-.177.19-.355.379-.71.379h-.709c-.178 0-.533-.19-.71-.379l-1.064-1.705c-.178-.19-.355-.378-.71-.19l-1.42.57c-.177.189-.354.378-.354.757l.355 1.894c0 .19 0 .568-.178.758l-.355.379c-.177.189-.532.378-.71.189l-1.773-.379c-.178 0-.533 0-.71.379L7.87 14.21c0 .19 0 .569.177.758l1.597 1.137c.177.189.355.378.355.757v.758c0 .19-.178.568-.355.758l-1.597 1.136c-.177.19-.355.379-.177.758l.532 1.515c.177.19.355.38.71.38l1.774-.38c.177 0 .532 0 .71.19l.354.378c.178.19.355.569.178.758l-.355 1.894c0 .19 0 .569.355.758l1.419.568c.177 0 .532 0 .71-.19l1.064-1.704c.177-.19.355-.379.71-.379h.709c.178 0 .533.19.71.38l1.064 1.704c.178.19.355.379.71.19l1.42-.569c.177-.19.354-.379.354-.758l-.355-1.894c0-.19 0-.568.178-.758l.355-.378c.177-.19.532-.38.71-.19l1.773.38c.178 0 .533 0 .71-.38l.532-1.515c0-.19 0-.568-.177-.758l-1.597-1.136c-.177-.19-.355-.38-.355-.758zm-6.21 4.167c-2.305 0-4.257-2.083-4.257-4.546 0-2.462 1.952-4.546 4.258-4.546s4.258 2.084 4.258 4.546c-.178 2.652-1.952 4.546-4.258 4.546zm-5.499-16.29c-.177 0-.355-.19-.355-.379v-.947l.71-1.136c.177-.19.177-.38 0-.569l-.71-.757c-.177-.19-.355-.19-.532 0l-1.064.757c-.178.19-.355.19-.533 0l-.355-.19c-.177 0-.354-.189-.354-.378L7.692.572c0-.19-.177-.379-.355-.379H6.273c-.177 0-.355.19-.355.38l-.177 1.325c0 .19-.178.379-.355.379h-.887l-1.065-.758c-.177-.19-.355 0-.532 0l-.71.758c-.177.19-.177.379 0 .568l.71 1.137c.177.19.177.379 0 .568l-.177.379c0 .19-.178.379-.355.379l-1.242.19c-.177 0-.355.188-.355.378v1.136c0 .19.178.38.355.38l1.242.189c.177 0 .355.19.355.379v.947l-.71 1.136c-.177.19 0 .379 0 .568l.71.758c.177.19.354.19.532 0l1.064-.758c.178-.189.355-.189.533 0l.354.19c.178 0 .355.19.355.379l.178 1.326c0 .189.177.378.355.378H7.16c.177 0 .355-.189.355-.378l.177-1.326c0-.19.178-.38.355-.38h.887L10 11.56c.177.189.354.189.532 0l.71-.758c.177-.19.177-.379 0-.568l-.71-1.137c-.178-.19-.178-.379 0-.568l.177-.38c0-.188.178-.378.355-.378l1.242-.19c.177 0 .355-.189.355-.378V6.065c0-.19-.178-.379-.355-.379l-1.242-.189zm-3.726 3.41c-1.241.568-2.483 0-3.016-1.326-.532-1.326 0-2.652 1.242-3.22 1.242-.569 2.484 0 3.016 1.325.533 1.326 0 2.652-1.242 3.22zM18.87 17.43c0 1.325-1.064 2.462-2.306 2.462s-2.306-1.137-2.306-2.462c0-1.326 1.064-2.463 2.306-2.463s2.306 1.137 2.306 2.463z" fill="#B765D2"/></g><g><path d="M119.294 59.82c0-.57-.353-.952-.882-.952h-6.177c-.53 0-.882.381-.882.953v13.333c0 .571.353.952.882.952h6.177c.53 0 .882-.38.882-.952V59.821z" fill="#FFF"/><path d="M118.412 74.487h-6.177c-.706 0-1.235-.571-1.235-1.333V59.821c0-.762.53-1.334 1.235-1.334h6.177c.706 0 1.235.572 1.235 1.334v13.333c0 .762-.53 1.333-1.235 1.333zm-6.177-15.047c-.176 0-.353.19-.353.38v13.334c0 .19.177.381.353.381h6.177c.176 0 .353-.19.353-.38V59.82c0-.19-.177-.381-.353-.381h-6.177z" fill="#4BA3CC"/><path d="M118.941 72.964h-7.059c-.176 0-.353-.19-.353-.381 0-.19.177-.381.353-.381h7.06c.176 0 .352.19.352.38 0 .191-.176.382-.353.382zM118.941 61.154h-7.059c-.176 0-.353-.19-.353-.38 0-.191.177-.382.353-.382h7.06c.176 0 .352.19.352.381 0 .19-.176.381-.353.381z" fill="#4BA3CC"/></g><g><path d="M14.937 56.975c0-.378-.378-.757-.756-.757H1.324c-.379 0-.757.379-.757.757v12.857c0 .378.378.756.757.756H14.18c.378 0 .756-.378.756-.756V56.975z" fill="#E4DBFF"/><path d="M12.668 61.134c-.567 0-1.134-.567-1.134-1.134s.567-1.134 1.134-1.134 1.135.567 1.135 1.134-.379 1.134-1.135 1.134zm0-1.512c-.189 0-.378.189-.378.378 0 .19.189.378.378.378.19 0 .378-.189.378-.378 0-.19-.189-.378-.378-.378zM9.643 65.672c-.567 0-1.135-.567-1.135-1.134s.568-1.135 1.135-1.135c.567 0 1.134.568 1.134 1.135 0 .567-.378 1.134-1.134 1.134zm0-1.512c-.19 0-.378.189-.378.378s.189.378.378.378.378-.19.378-.378c0-.19-.19-.378-.378-.378zM6.618 62.647c-.568 0-1.135-.567-1.135-1.134 0-.568.567-1.135 1.135-1.135.567 0 1.134.567 1.134 1.135 0 .567-.378 1.134-1.134 1.134zm0-1.513c-.19 0-.379.19-.379.379s.19.378.379.378.378-.19.378-.378c0-.19-.19-.379-.378-.379zM2.836 66.429c-.567 0-1.134-.568-1.134-1.135 0-.567.567-1.134 1.134-1.134s1.135.567 1.135 1.134-.379 1.135-1.135 1.135zm0-1.513c-.189 0-.378.189-.378.378 0 .19.19.378.378.378.19 0 .378-.189.378-.378s-.189-.378-.378-.378z" fill="#A15ACD"/><path d="M3.403 65.105s-.189 0-.189-.189c-.189-.19-.189-.378 0-.567l2.647-2.836c.19-.19.378-.19.568 0 .189.189.189.378 0 .567l-2.647 2.836c-.19.189-.19.189-.379.189zM9.265 64.538c-.19 0-.19 0-.19-.19l-1.89-2.08c-.19-.188-.19-.377 0-.566.189-.19.378-.19.567 0l1.89 2.08c.19.189.19.378 0 .567l-.377.189zM10.21 64.538c-.378-.19-.378-.378-.378-.567l2.08-3.404c.189-.189.378-.189.567-.189.19.19.19.378.19.567l-2.08 3.404s-.19.189-.379.189z" fill="#A15ACD"/></g><g><path fill="#71DBD4" d="M57.346 21.033V3.618h5.33v17.415z"/><path d="M57.347 2.017v1.78h5.343V1.838c0-.89-.745-1.602-1.955-1.602h-1.412c-1.009 0-1.976.712-1.976 1.78z" fill="#BB67D3"/><path fill="#ABE4FF" d="M57.307 21L60 27.04 62.696 21z"/><path d="M59 24.8s.25-.8 1-.8 1 .8 1 .8L60 27l-1-2.2z" fill="#011C40"/><path d="M59.998 3.79v23.22l2.694-6V3.79z" opacity=".5" fill="#005780"/></g><path d="M112.941 66.843v-.432h.459l1.604 1.512 2.52-2.377h.46v.432l-2.98 2.593-2.063-1.728z" fill="#B765D2"/></g></svg>