<svg viewBox="0 0 114 118" width="114" height="118" xmlns="http://www.w3.org/2000/svg"><g fill="none" fill-rule="evenodd"><path d="M0 0h114v118H0z"/><g fill="#4BA3CC"><path d="M17.4 85.917s-.6-1.297-3.8-1.112c-3.8.185-6.6 4.448-9.8 4.818-2.6.186-3.8-1.112-3.8-1.112l2.6 7.784s1 1.297 3.8 1.112c3.6-.186 6-4.448 9.8-4.819 2.8-.185 3.6.556 3.8.927l-2.6-7.598zm-1.2 6.3c-.4 0-.8.186-1.2.186-1.4.37-2.8 1.297-4 2.224-1.2.927-2.4 1.668-3.6 2.038-.4.186-.6.186-1 .186-2.2.185-3.2-.742-3.4-.927L.8 89.438c.8.37 1.6.556 3 .556.4 0 .6 0 1-.185 1.4-.371 2.6-1.298 3.8-2.224 1.2-.927 2.6-1.853 3.8-2.224.4-.185.8-.185 1-.185 2.6-.186 3.2.74 3.4.926l2.2 6.301c-.4-.185-1.4-.37-2.8-.185z"/><path d="M12.4 89.809c-.6-1.668-2.2-2.41-3.4-1.483-1.4.741-2 2.78-1.4 4.448.6 1.668 2.2 2.409 3.4 1.482 1.4-.926 1.8-2.965 1.4-4.447zm-1.8 2.965l.2.556-.4.185-.2-.556c-.4.185-.6.37-1 .37v-.37c.2 0 .6-.185.8-.37.4-.186.6-.742.4-.927 0-.37-.4-.37-.8-.186-.6.186-1 .186-1.2-.37-.2-.37 0-.927.6-1.483v-.556l.4-.185.2.556c.4-.185.6-.37.8-.37v.37c-.2 0-.4 0-.8.37-.4.371-.6.742-.4.927 0 .186.4.186.8.186.6-.186 1 0 1.2.37.2.37 0 .927-.6 1.483zM14 87.585c-.6.37-.8 1.297-.6 1.853.2.741 1 .927 1.4.556.6-.37.8-1.297.6-1.853-.2-.556-.8-.927-1.4-.556zm.8 2.038h-.2l-.4-1.297-.2.185v-.185l.2-.185h.2l.4 1.482zM4.6 91.847c-.6.37-.8 1.297-.6 1.853.2.742 1 .927 1.4.556.6-.37.8-1.297.6-1.853 0-.741-.8-.927-1.4-.556zm1 1.853L5 92.588l-.2.186v-.186l.2-.185h.2l.4 1.297z"/></g><g opacity=".6"><path d="M94.93 77.529c0 1.91-1.547 3.437-3.48 3.437H14.868c-1.934 0-3.481-1.528-3.481-3.437V23.677c0-1.91 1.547-3.437 3.48-3.437H91.45c1.933 0 3.48 1.527 3.48 3.437v53.852z" fill="#4BA3CC"/><path d="M14.868 79.438a1.925 1.925 0 0 1-1.934-1.91V23.678c0-1.146.967-1.91 1.934-1.91H91.45c1.16 0 1.933.955 1.933 1.91v53.852c0 1.146-.966 1.91-1.933 1.91H14.868z" fill="#FFF"/><path d="M94.93 29.406c0 .19-.19.19-.382.19H12.474c-.192 0-.383-.19-.383-.19v-5.92c0-1.91 1.53-3.437 3.444-3.437h75.76a3.426 3.426 0 0 1 3.444 3.437v2.292c.192 1.91.192 3.628.192 3.628z" fill="#4BA3CC"/><path d="M68.436 24.823c0 1.145-.967 1.91-1.934 1.91h-39.45a1.925 1.925 0 0 1-1.935-1.91c0-1.146.967-1.91 1.934-1.91h39.451c.967-.19 1.934.764 1.934 1.91z" fill="#FFF"/><ellipse cx="2.39" cy="2.178" rx="1.934" ry="1.91" transform="translate(14.025 22.644)" fill="#FFF"/><ellipse cx="2.901" cy="2.178" rx="1.934" ry="1.91" transform="translate(18.736 22.644)" fill="#FFF"/><ellipse cx="2.514" cy="2.178" rx="1.934" ry="1.91" transform="translate(69.017 22.644)" fill="#FFF"/><ellipse cx="2.707" cy="2.178" rx="1.934" ry="1.91" transform="translate(74.818 22.644)" fill="#FFF"/><ellipse cx="2.901" cy="2.178" rx="1.934" ry="1.91" transform="translate(80.62 22.644)" fill="#FFF"/><ellipse cx="1.16" cy="1.146" rx="1" ry="1" transform="translate(90.29 21.576)" fill="#FFF"/><ellipse cx="1.74" cy="1.146" rx="1" ry="1" transform="translate(86.421 21.576)" fill="#FFF"/><path d="M36.68 44.806h22.626v21.961H36.68z" fill="#4BA3CC"/><g fill="#4BA3CC"><path d="M78.587 61.491H61.569c-.194 0-.387-.191-.387-.382 0-.19.193-.382.387-.382h17.018c.193 0 .387.191.387.382s-.194.382-.387.382zM78.587 59.2H61.569c-.194 0-.387-.192-.387-.382 0-.191.193-.382.387-.382h17.018c.193 0 .387.19.387.382 0 .19-.194.381-.387.381zM78.587 56.908H61.569c-.194 0-.387-.191-.387-.382s.193-.382.387-.382h17.018c.193 0 .387.191.387.382 0 .19-.194.382-.387.382zM78.587 54.425H61.569c-.194 0-.387-.19-.387-.382 0-.19.193-.382.387-.382h17.018c.193 0 .387.191.387.382 0 .382-.194.382-.387.382zM78.587 52.134H61.569c-.194 0-.387-.191-.387-.382s.193-.382.387-.382h17.018c.193 0 .387.19.387.382 0 .19-.194.382-.387.382zM78.587 49.842H61.569c-.194 0-.387-.19-.387-.382 0-.19.193-.382.387-.382h17.018c.193 0 .387.191.387.382s-.194.382-.387.382zM75.88 45.832H61.568c-.194 0-.387-.191-.387-.382 0-.19.193-.382.387-.382h14.31c.194 0 .387.191.387.382s-.193.382-.387.382z"/></g><g fill="#FFF" fill-rule="nonzero"><path d="M52.47 50.642h-8.758c-1.194 0-2.167.957-2.167 2.133v3.171c0 .311.023.617.067.916l.003.023c.325 2.186 1.77 4.02 3.742 4.916a6.596 6.596 0 0 0 2.734.59c.921 0 1.799-.189 2.595-.529a.67.67 0 0 0 .18-.08c1.947-.9 3.374-2.72 3.7-4.889l.004-.033c.044-.299.066-.604.066-.914v-3.17c0-1.177-.972-2.134-2.167-2.134zm-7.02 9.724a5.16 5.16 0 0 1-2.399-3.12c.127-.021.256-.033.388-.033 1.231 0 2.233.987 2.233 2.2 0 .331-.077.658-.221.953zm5.281 0a2.176 2.176 0 0 1-.222-.954c0-1.212 1.003-2.199 2.234-2.199.132 0 .26.012.388.034a5.16 5.16 0 0 1-2.4 3.12zm2.57-7.415h-1.559a.663.663 0 0 0-.668.657c0 .363.3.658.668.658h1.559v1.674a3.652 3.652 0 0 0-.558-.042c-1.968 0-3.57 1.577-3.57 3.514 0 .511.115 1.014.33 1.472a5.274 5.274 0 0 1-2.823 0c.214-.458.328-.96.328-1.472 0-1.937-1.601-3.514-3.57-3.514-.188 0-.374.014-.557.043v-1.675h1.559a.663.663 0 0 0 .668-.658.663.663 0 0 0-.668-.657H42.88v-.176c0-.451.373-.818.831-.818h8.757c.459 0 .832.367.832.818v.176z"/></g></g><path d="M113.805 83.305s.39-2.663-4.673-4.946c-5.842-2.663-14.02 1.712-18.889-.57-4.089-1.903-4.673-4.946-4.673-4.946L82.454 87.3s.195 2.854 4.674 4.946c5.647 2.663 13.241-2.092 18.888.57 4.479 2.093 4.868 3.996 4.868 4.756l2.921-14.267z" fill="#3726AF"/><path d="M106.406 92.056c-.584-.38-1.363-.57-2.142-.761-2.532-.57-5.258-.19-7.984.38-2.532.38-5.063.761-7.205.38-.584-.19-1.168-.38-1.558-.57-3.505-1.712-4.089-3.804-4.284-4.185l2.532-11.984c.779 1.141 1.947 2.282 4.089 3.234l1.752.57c2.337.571 4.869.19 7.595-.19s5.452-.76 7.789-.19l1.752.57c4.09 1.903 4.284 3.805 4.284 4.186l-2.531 11.603c-.779-1.14-2.142-2.092-4.09-3.043z" fill="#C8EFF2"/><path d="M102.706 84.827c.584-3.044-.974-5.516-3.7-5.326-2.726.19-5.452 2.853-6.036 5.897-.585 3.043.973 5.516 3.7 5.326 2.53 0 5.257-2.663 6.036-5.897zm-5.258 3.424l-.194.951-.78.19.195-.95c-.584 0-1.363 0-1.752-.19l.39-.762c.389.19.973.38 1.557.19.779-.19 1.558-.57 1.558-1.14.195-.571-.195-.762-.974-.952-1.168-.19-1.752-.57-1.558-1.522.195-.76.974-1.522 2.142-1.902l.195-.951h.78l-.196.95c.78 0 1.169 0 1.363.191l-.389.761c-.195 0-.584-.19-1.363-.19-.974.19-1.363.57-1.363.951-.195.57.195.76 1.168.951 1.169.19 1.558.761 1.363 1.522-.194.76-.973 1.522-2.142 1.902zM106.99 83.115c-1.168 0-2.337 1.141-2.532 2.473-.194 1.332.39 2.283 1.558 2.283 1.169 0 2.337-1.142 2.532-2.473.39-1.522-.39-2.473-1.558-2.283zm-.39 3.614h-.389l.584-2.282-.584.19v-.38l.584-.19h.39l-.585 2.662zM89.465 81.783c-1.169 0-2.337 1.142-2.532 2.473-.195 1.332.39 2.283 1.558 2.283 1.168 0 2.337-1.141 2.531-2.473.195-1.331-.39-2.283-1.557-2.283zm-.585 3.805h-.39l.585-2.283-.584.19v-.38l.584-.19h.39l-.585 2.663z" fill="#4BA3CC"/><g><path d="M92.805 78.964c0 1.34-1.17 2.488-2.537 2.488h-1.366c-1.365 0-2.926 1.148-3.317 2.487l-8 31c-.39 1.339-1.756 2.487-3.317 2.487H32.512c-1.366 0-2.927-1.148-3.317-2.488l-8-30.999c-.39-1.339-1.756-2.487-3.317-2.487h-1.366c-1.366 0-2.536-1.148-2.536-2.488v-5.166c0-1.34 1.17-2.488 2.536-2.488h73.561c1.366 0 2.537 1.148 2.537 2.488v5.166h.195zM40.317 89.297c0-1.34-1.17-2.487-2.537-2.487-1.365 0-2.536 1.148-2.536 2.487v15.5c0 1.34 1.17 2.487 2.536 2.487s2.537-1.148 2.537-2.487v-15.5zm10.537 0c0-1.34-1.171-2.487-2.537-2.487-1.366 0-2.537 1.148-2.537 2.487v15.5c0 1.34 1.171 2.487 2.537 2.487 1.366 0 2.537-1.148 2.537-2.487v-15.5zm21.073 0c0-1.34-1.17-2.487-2.537-2.487-1.366 0-2.536 1.148-2.536 2.487v15.5c0 1.34 1.17 2.487 2.536 2.487s2.537-1.148 2.537-2.487v-15.5zm-10.537 0c0-1.34-1.17-2.487-2.536-2.487s-2.537 1.148-2.537 2.487v15.5c0 1.34 1.17 2.487 2.537 2.487 1.366 0 2.536-1.148 2.536-2.487v-15.5z" fill="#C09FF0"/><path d="M65.098 78.008c-1.366 0-2.732-.574-3.708-1.531-2.146-1.914-2.146-5.358 0-7.272l20.098-19.709c.975-.957 2.341-1.53 3.707-1.53 1.366 0 2.732.573 3.707 1.53.976.957 1.561 2.296 1.561 3.636 0 1.34-.585 2.679-1.56 3.636L68.804 76.477c-.976.957-2.342 1.53-3.707 1.53z" fill="#FFF"/><path d="M66.854 74.563c-.976.957-2.732.957-3.708 0-.975-.957-.975-2.679 0-3.635l20.098-19.71c.976-.956 2.732-.956 3.707 0 .976.957.976 2.68 0 3.636l-20.097 19.71z" fill="#9855CA"/><path d="M41.878 78.008c-1.366 0-2.732-.574-3.707-1.531l-20.098-19.71c-2.146-2.104-2.146-5.357 0-7.27.976-.958 2.342-1.532 3.707-1.532 1.366 0 2.732.574 3.708 1.531l20.097 19.71c2.147 1.913 2.147 5.357 0 7.27-.975.958-2.341 1.532-3.707 1.532z" fill="#FFF"/><path d="M39.927 74.563c.975.957 2.732.957 3.707 0 .976-.957.976-2.679 0-3.635l-20.097-19.71c-.976-.956-2.732-.956-3.708 0-.975.957-.975 2.68 0 3.636l20.098 19.71z" fill="#9855CA"/><path d="M77.464 115.13l.194-.574H29.195l.194.574c.388 1.34 1.745 2.487 3.295 2.487h41.872c1.163 0 2.52-1.148 2.908-2.487z" fill="#3726AF"/><g><path d="M90.268 81.452H16.512c-1.366 0-2.536-1.148-2.536-2.488v-5.166c0-1.34 1.17-2.488 2.536-2.488h73.561c1.366 0 2.537 1.148 2.537 2.488v5.166c.195 1.34-.976 2.488-2.342 2.488z" fill="#3726AF"/><path d="M65.098 78.008c-1.366 0-2.732-.574-3.708-1.531-2.146-1.914-2.146-5.358 0-7.272l20.098-19.709c.975-.957 2.341-1.53 3.707-1.53 1.366 0 2.732.573 3.707 1.53.976.957 1.561 2.296 1.561 3.636 0 1.34-.585 2.679-1.56 3.636L68.804 76.477c-.976.957-2.342 1.53-3.707 1.53z" fill="#FFF"/><path d="M66.854 74.563c-.976.957-2.732.957-3.708 0-.975-.957-.975-2.679 0-3.635l20.098-19.71c.976-.956 2.732-.956 3.707 0 .976.957.976 2.68 0 3.636l-20.097 19.71z" fill="#9855CA"/><path d="M41.878 78.008c-1.366 0-2.732-.574-3.707-1.531l-20.098-19.71c-2.146-2.104-2.146-5.357 0-7.27.976-.958 2.342-1.532 3.707-1.532 1.366 0 2.732.574 3.708 1.531l20.097 19.71c2.147 1.913 2.147 5.357 0 7.27-.975.958-2.341 1.532-3.707 1.532z" fill="#FFF"/><path d="M39.927 74.563c.975.957 2.732.957 3.707 0 .976-.957.976-2.679 0-3.635l-20.097-19.71c-.976-.956-2.732-.956-3.708 0-.975.957-.975 2.68 0 3.636l20.098 19.71z" fill="#9855CA"/><path d="M77.658 114.556H29.195l.194.574c.388 1.34 1.745 2.487 3.295 2.487h41.872c1.163 0 2.52-1.148 2.908-2.487l.194-.574z" fill="#3726AF"/></g></g><g><path d="M10.9 99.255s-.557.185-1.671.922a2.87 2.87 0 0 0-1.115 1.475c-1.114 2.581 0 6.453 2.6 8.666 1.672 1.475 3.715 1.843 5.2 1.106l1.486-.738c1.114-2.765-3.9-9.218-6.5-11.43z" fill="#3726AF"/><path d="M9.6 100.177c-.557.369-.929.738-1.114 1.475-1.115 2.397 0 6.084 2.414 8.113 1.671 1.475 3.529 1.659 4.829 1.106l1.485-.738c1.115-2.397-3.714-8.665-6.128-10.693 0 0-.557.184-1.486.737z" fill="#E4DBFF"/><path d="M16.286 100.177c-2.6-2.212-5.572-1.844-6.872.738-1.114 2.58 0 6.453 2.6 8.665 2.6 2.213 5.572 1.844 6.872-.737.928-2.582-.186-6.453-2.6-8.666z" fill="#3726AF"/><path d="M15.914 100.915c-2.043-1.844-4.643-1.475-5.571.553-.929 2.212 0 5.347 2.043 7.19 2.043 1.844 4.643 1.475 5.571-.553.929-2.028 0-5.347-2.043-7.19z" fill="#E4DBFF"/><path d="M14.614 108.474l-.371-.553c-.186-.185 0-.369.186-.553.185 0 .371-.369.742-.922.186-.553.186-1.106-.185-1.29H14.8c-.186 0-.186 0-.557.368-.372.369-.929.922-1.486.922-.371 0-.557-.185-.928-.369-.558-.553-.929-1.475-.743-2.581l-.557-.369c-.186-.184-.186-.369-.186-.369l.186-.553c0-.184.185-.184.371-.184h.186c.185 0 .185 0 .185.184l.186.185c.186-.185.372-.554.557-.738l.186-.184c.186 0 .186.184.371.184l.372.553c.186.185 0 .369-.186.553a2.547 2.547 0 0 0-.557.738c-.186.553 0 .922 0 1.106 0 0 .186 0 .557-.553.372-.369.743-.738 1.486-.738.371 0 .743.185.928.37.743.552.929 1.659.743 2.765l.557.553c.186.184.186.369.186.369l-.186.553c0 .184-.185.184-.371.184h-.186c-.185 0-.185 0-.371-.184l-.186-.185c-.186.37-.557.738-.743.922h.372c-.186 0-.372-.184-.372-.184z" fill="#C090E3"/><path d="M16.1 106.446l.743.553-.186.553-.743-.553a1.892 1.892 0 0 1-.928 1.106l-.372-.553c.372-.184.557-.553.743-1.106.186-.738.186-1.29-.186-1.66-.371-.368-.742-.184-1.3.37-.742.737-1.3 1.105-1.857.552-.557-.553-.743-1.475-.557-2.397l-.743-.553.186-.553.743.553c.186-.553.557-.922.743-1.106l.371.553c-.186.185-.557.369-.743.922-.371.738 0 1.29.186 1.475.371.369.743.184 1.3-.553.743-.738 1.3-.922 1.857-.369.743.738 1.114 1.66.743 2.766zM7.96 102.294l1.774-1.013.497.868-1.774 1.013z" fill="#3726AF"/><path fill="#3726AF" d="M8.349 101.1l1.773-1.014.497.868-1.774 1.014zM7.593 104.022l1.775-1.012.495.869-1.775 1.011zM8.106 106.26l1.774-1.013.496.868-1.775 1.013zM9.26 108.41l1.774-1.015.497.868-1.774 1.014zM10.939 110.297l1.773-1.014.497.869-1.774 1.013zM12.397 111.009l1.774-1.013.496.868-1.774 1.013z"/><path fill="#3726AF" d="M13.435 111.347l1.773-1.013.497.868-1.774 1.014z"/></g><g><path d="M52.972 43.48c-.972 0-1.944-.384-2.722-1.154v-.192L39.167 27.512c-.778-.962-.973-2.116-.39-3.27.584-1.155 1.556-1.732 2.917-1.732h4.667c-.389-13.66-3.305-16.161-3.694-16.546-1.167-.192-2.14-1.154-2.14-2.309-.194-1.346.973-2.5 2.334-2.693h1.167c1.555 0 5.833.385 9.528 4.04 3.694 3.656 5.833 9.62 6.222 17.7h4.86c1.362 0 2.334.577 2.918 1.732.583.962.388 2.308-.39 3.27L56.084 42.326v.192c-1.166.385-2.139.962-3.11.962z" fill="#FFF"/><path d="M53.556 40.402L64.639 25.78c.389-.384.194-.77-.389-.77h-7.389c0-23.663-14-21.547-14-21.547s6.028 0 6.028 21.548H41.5c-.583 0-.778.385-.389.77l11.083 14.621c.584.577 1.167.577 1.362 0z" fill="#B765D2"/></g><g transform="translate(0 33.433)"><ellipse fill="#FFF" cx="11.053" cy="9.833" rx="9.947" ry="9.833"/><path d="M9.947 0C4.463 0 0 4.411 0 9.833c0 5.423 4.463 9.834 9.947 9.834 5.485 0 9.948-4.411 9.948-9.834C19.895 4.411 15.432 0 9.947 0zm4.783 10.59h-4.017v4.16a.761.761 0 0 1-.766.756.761.761 0 0 1-.765-.756v-4.16H5.165a.761.761 0 0 1-.765-.757c0-.417.343-.756.765-.756h4.017V5.295c0-.418.343-.757.765-.757.423 0 .766.34.766.757v3.782h4.017c.422 0 .765.339.765.756a.761.761 0 0 1-.765.757z" fill="#71DBD4" fill-rule="nonzero"/></g></g></svg>
