<svg width="189" height="12" viewBox="0 0 189 12" xmlns="http://www.w3.org/2000/svg"><defs><linearGradient x1="0%" y1="50%" y2="50%" id="a"><stop stop-color="#49D2E6" offset="0%"/><stop stop-color="#2FD3B8" offset="100%"/></linearGradient></defs><path d="M871.031 73.199c3.106 0 5.048 1.608 5.048 4.21 0 2.585-1.942 4.193-5.048 4.193h-2.341v3.2H866V73.198h5.031zm-.15 6.215c1.645 0 2.475-.745 2.475-2.005 0-1.276-.83-2.022-2.474-2.022h-2.192v4.027h2.192zm15.958 5.387l-1.029-2.486h-5.397l-1.03 2.486h-2.756l5.181-11.602h2.657l5.197 11.602h-2.823zm-5.562-4.525h3.686l-1.843-4.442-1.843 4.442zm19.893 4.525h-2.89l-2.241-3.232h-2.474v3.232h-2.69V73.2h5.03c3.106 0 5.049 1.608 5.049 4.21 0 1.74-.88 3.016-2.391 3.663l2.607 3.73zm-2.94-7.392c0-1.276-.83-2.022-2.474-2.022h-2.191v4.044h2.191c1.644 0 2.475-.762 2.475-2.022zm7.523 5.237h6.326v2.155h-9V73.2h8.784v2.155h-6.11v2.519h5.396v2.088h-5.396v2.685zm16.472-9.447h2.657V84.8h-2.209l-5.795-7.044V84.8h-2.657V73.2h2.225l5.78 7.044V73.2zm7.821 11.602v-9.414h-3.72v-2.188h10.13v2.188h-3.72V84.8h-2.69zm7.854 0V73.2h2.69V84.8h-2.69zM951.35 73.2h2.657V84.8H951.8l-5.795-7.044V84.8h-2.657V73.2h2.225l5.779 7.044V73.2zm13.268 9.016v-3.397h2.458v4.707c-1.279.961-3.04 1.475-4.7 1.475-3.653 0-6.343-2.503-6.343-6s2.69-6 6.393-6c2.043 0 3.736.696 4.866 2.006l-1.727 1.59c-.847-.894-1.827-1.309-3.006-1.309-2.258 0-3.803 1.509-3.803 3.713 0 2.171 1.545 3.713 3.77 3.713.73 0 1.411-.133 2.092-.498zm19.943 2.586h-2.89l-2.241-3.232h-2.474v3.232h-2.69V73.2h5.031c3.105 0 5.048 1.608 5.048 4.21 0 1.74-.88 3.016-2.391 3.663l2.607 3.73zm-2.94-7.392c0-1.276-.83-2.022-2.473-2.022h-2.192v4.044h2.192c1.644 0 2.474-.762 2.474-2.022zm7.523 5.237h6.326v2.155h-9V73.2h8.785v2.155h-6.111v2.519h5.397v2.088h-5.397v2.685zm13.5-9.447c3.105 0 5.048 1.608 5.048 4.21 0 2.585-1.943 4.193-5.048 4.193h-2.341v3.2h-2.69V73.198h5.03zm-.15 6.215c1.644 0 2.475-.745 2.475-2.005 0-1.276-.83-2.022-2.475-2.022h-2.191v4.027h2.191zM1015.397 85c-3.67 0-6.36-2.552-6.36-6s2.69-6 6.36-6c3.653 0 6.36 2.536 6.36 6s-2.707 6-6.36 6zm0-2.287c2.075 0 3.636-1.509 3.636-3.713s-1.56-3.713-3.636-3.713-3.637 1.509-3.637 3.713 1.561 3.713 3.637 3.713zm18.68 2.088h-2.889l-2.242-3.232h-2.474v3.232h-2.69V73.2h5.032c3.105 0 5.048 1.608 5.048 4.21 0 1.74-.88 3.016-2.392 3.663l2.607 3.73zm-2.939-7.392c0-1.276-.83-2.022-2.474-2.022h-2.192v4.044h2.192c1.644 0 2.474-.762 2.474-2.022zm7.257 7.392v-9.414h-3.72v-2.188h10.13v2.188h-3.72V84.8h-2.69zm11.673.199c-1.843 0-3.703-.547-4.732-1.343l.913-2.022c.98.713 2.441 1.21 3.836 1.21 1.594 0 2.242-.53 2.242-1.243 0-2.171-6.759-.68-6.759-4.989 0-1.972 1.594-3.613 4.899-3.613 1.461 0 2.956.348 4.035 1.028l-.83 2.038c-1.08-.613-2.192-.911-3.222-.911-1.594 0-2.208.596-2.208 1.326 0 2.138 6.758.663 6.758 4.922 0 1.94-1.61 3.597-4.932 3.597z" transform="translate(-866 -73)" fill="url(#a)" fill-rule="evenodd"/></svg>