<svg width="20" height="8" preserveAspectRatio="xMaxYMax meet" viewBox="0 0 20 8" xmlns="http://www.w3.org/2000/svg"><path d="M4.53 4.456c-.431.86-.709 1.582-.853 2.152.535.39.997.641 1.223.641.986 0 1.767-.821 1.767-1.832 0-.641-.309-1.172-1.038-1.172-.318 0-.75.11-1.099.21zm-.935 2.653c-.01.08-.01.14-.01.21 0 .36-.103.681-.318.681-.35 0-1.079-.771-1.079-1.151 0-1.112 1.798-4.136 3.595-5.888a.791.791 0 0 1 .534-.21c.175 0 .257.06.257.16 0 .06-.04.13-.092.22A39.06 39.06 0 0 0 4.92 3.725c1.921-.15 3.072-1.002 3.072-2.283C7.992.77 7.499.44 6.728.44c-1.91 0-5.167 1.371-5.167 2.282 0 .28.298.671.504.671.113 0 .349-.11.513-.27.093-.09.185-.14.267-.14.072 0 .113.04.113.09 0 .01-.01.03-.02.05-.35.6-.822 1.051-1.11 1.051-.38 0-1.828-.84-1.828-1.151C0 1.772 3.955 0 6.728 0 7.92 0 9.204.901 9.204 1.722c0 1.282-.822 2.113-2.722 2.373.678.34 1.263.951 1.263 1.452 0 1.221-1.191 2.163-2.732 2.163-.308 0-.935-.27-1.418-.601zm6.246-1.772c.678-.4 1.274-1.182 1.274-1.803 0-.1-.021-.2-.042-.28-.513.38-1.078 1.332-1.232 2.083zm.863 2.162c-1.11 0-2.301-.63-2.301-1.151 0-1.121.965-2.894 1.859-3.424a.9.9 0 0 1 .442-.11c.503 0 1.068.34 1.068.8 0 .621-1.007 1.833-1.983 2.143.01.56.401.961.925.961.216 0 .678-.57 1.191-1.431.052-.08.185-.14.34-.14.112 0 .154.03.154.09 0 .01 0 .03-.01.05-.689 1.341-1.367 2.212-1.685 2.212zm2.475-.78c.329 0 .78-.571 1.295-1.432.05-.08.184-.14.339-.14.113 0 .164.03.164.09 0 .01-.01.03-.02.05-.689 1.341-1.367 2.212-1.696 2.212-.287 0-1.643-.65-1.643-1.02 0-.482.544-1.753 1.736-3.816h-.514c-.113 0-.154-.06-.154-.14 0-.19.226-.5.38-.49l.647.03c.206-.34.422-.711.658-1.092a.203.203 0 0 1 .174-.09c.226 0 .545.27.545.48 0 .03-.01.06-.03.09-.124.221-.237.441-.35.662 1.438.07 2.558.11 3.081.11.083 0 .113.02.113.07 0 .09-.133.19-.205.2-.688.07-1.941.13-3.277.15-.904 1.763-1.469 3.144-1.469 3.745 0 .21.072.33.226.33zm5.003-3.195c-.175-.12-.504-.25-.688-.25-.812 0-2.024 2.523-2.024 3.254 0 .12.03.19.103.19.328 0 1.376-1.271 2.321-2.693.093-.18.185-.34.288-.5zm1.808 1.763c-.689 1.341-1.366 2.212-1.685 2.212-.298 0-1.407-.77-1.407-1.211 0-.08.03-.22.092-.39-.698.95-1.294 1.601-1.561 1.601-.288 0-1.274-.77-1.274-1.151 0-1.292 1.962-3.615 2.948-3.615.329 0 .914.27 1.264.501.123-.19.236-.34.328-.44a.212.212 0 0 1 .155-.06c.226 0 .554.25.554.46 0 .03-.01.05-.02.08-.781 1.572-1.192 2.744-1.192 3.214 0 .15.041.23.123.23.226 0 .668-.57 1.192-1.431.051-.08.185-.14.339-.14.103 0 .154.03.154.09 0 .01 0 .03-.01.05z" fill="#19EBDD" fill-rule="evenodd"/></svg>