<svg width="120" height="100" xmlns="http://www.w3.org/2000/svg"><defs><linearGradient x1="6.116%" y1="6.905%" x2="95.02%" y2="91.749%" id="a"><stop stop-color="#00FFCD" offset="0%"/><stop stop-color="#00D4E4" offset="100%"/></linearGradient><linearGradient x1="1.879%" y1="40.27%" x2="110.506%" y2="40.27%" id="b"><stop stop-color="#B620B4" offset="0%"/><stop stop-color="#AD23B5" offset="22.81%"/><stop stop-color="#952BB8" offset="59.66%"/><stop stop-color="#7437BC" offset="100%"/></linearGradient><radialGradient cx="-19.513%" cy="89.587%" fx="-19.513%" fy="89.587%" r="141.508%" gradientTransform="matrix(.84456 -.46105 .44524 .90037 -.43 0)" id="c"><stop stop-color="#B620B4" offset="0%"/><stop stop-color="#3726AF" offset="100%"/></radialGradient></defs><g fill="none" fill-rule="evenodd"><path d="M75.242 20.696a19.313 19.313 0 0 0-2.078-2.559S60.776 4.34 39.778.541C34.029-.752 27.687.25 22.288 3.786c-5.397 3.535-8.717 8.917-9.662 14.589-4.264 20.42 4.049 36.802 4.103 36.881.459.976.998 1.926 1.62 2.85 5.154 7.465 14.654 10.446 23.4 8.02 0 0 14.169-3.404 30.066-18.837 7.53-7.018 9.176-18.23 3.427-26.593z" fill="url(#a)" opacity=".9" transform="translate(20.656)"/><path d="M63.148 46.98c0-1.006-.083-1.985-.248-2.964 0 0-2.227-16.513-16.247-29.77-3.712-3.811-9.1-6.22-15.093-6.22s-11.381 2.382-15.065 6.193C2.502 27.45.247 43.91.247 43.989A17.188 17.188 0 0 0 0 46.928c0 8.177 5.718 15.11 13.663 17.624 0 0 12.619 4.446 32.88.715 9.43-1.509 16.605-9.13 16.605-18.286z" fill="url(#b)" opacity=".9" transform="translate(20.656)"/><path d="M64.127 21.673c-.936-.454-1.9-.827-2.865-1.12 0 0-16.336-5.602-35.014.506-5.179 1.494-9.862 5.068-12.562 10.243-2.7 5.175-2.92 10.937-1.074 15.872 5.95 18.138 20.22 27.58 20.303 27.634a18.06 18.06 0 0 0 2.617 1.547c7.603 3.735 16.64 1.92 22.562-3.814 0 0 9.835-8.91 15.538-28.142 2.837-8.882-.992-18.538-9.505-22.726z" fill="url(#c)" opacity=".9" transform="translate(20.656)"/><path d="M31.475 35.22h1.697v6.764h2.693v1.69h-4.39V35.22zm7.545 8.455h-1.696V35.22h1.696v8.455zm5.006 0H42.33V36.91h-2.112v-1.68h5.92v1.68h-2.112v6.764zm6.49 0h-1.697V36.91h-2.111v-1.68h5.92v1.68h-2.112v6.764zm3.392-8.455h1.697v6.764h2.693v1.69h-4.39V35.22zm10.238 8.455h-4.39V35.22h4.248v1.691h-2.55v1.691h2.23v1.691h-2.23v1.69h2.692v1.692zm5.67.118c5.837 0 5.837-8.715 0-8.715-5.836 0-5.836 8.715 0 8.715zm0-1.75c3.393 0 3.393-5.227 0-5.227-3.392 0-3.392 5.227 0 5.227zm7.664-2.968v4.6h-1.696v-8.632h.45l4.283 4.966v-4.777h1.708v8.62h-.45l-4.295-4.777zm11.045 4.6h-4.39V35.22h4.247v1.691h-2.55v1.691h2.23v1.691h-2.23v1.69h2.693v1.692z" fill="#FFF"/><path d="M5.02 93.049h.716v6.83h-.598L.726 94.338v5.543H0v-6.831h.598L5.02 98.59V93.05zm3.677 6.206h4.129v.625H7.972v-6.831h4.707v.624H8.697v2.43h3.55v.615h-3.55v2.537zm10.894.625h-.843l-2.216-3.006-2.206 3.006h-.834l2.609-3.513-2.442-3.318h.834l2.069 2.79 2.059-2.79h.784l-2.432 3.298 2.618 3.533zm2.324 0v-6.207h-2.412v-.624h5.55v.624h-2.412v6.207h-.726zm6.864 0v-6.831h.726v6.206h3.844v.625h-4.57zm6.501-.625h4.128v.625h-4.853v-6.831h4.706v.624h-3.98v2.43h3.549v.615h-3.55v2.537zm10.708-6.206h.735l-3.04 6.83h-.715l-3.04-6.83h.785l2.627 5.933 2.648-5.933zm2.451 6.206h4.128v.625h-4.853v-6.831h4.706v.624h-3.98v2.43h3.549v.615h-3.55v2.537zm5.835.625v-6.831h.725v6.206h3.844v.625h-4.57zm10.913-6.831c1.746 0 2.805.878 2.805 2.342 0 1.454-1.06 2.332-2.805 2.332h-1.843v2.157h-.726v-6.831h2.57zm-.02 4.04c1.373 0 2.099-.625 2.099-1.698 0-1.093-.726-1.718-2.098-1.718h-1.824v3.416h1.824zm9.178 2.79l-.823-1.824h-3.824l-.824 1.825h-.755l3.138-6.831h.716l3.137 6.83h-.765zm-4.383-2.41h3.295L71.61 93.8l-1.648 3.67zm11.767 2.41h-.794l-1.57-2.195a4.91 4.91 0 0 1-.548.03h-1.844v2.166h-.725v-6.831h2.569c1.745 0 2.804.878 2.804 2.342 0 1.073-.569 1.825-1.569 2.147l1.677 2.342zm-2.932-2.78c1.373 0 2.099-.635 2.099-1.708 0-1.093-.726-1.718-2.099-1.718h-1.824v3.425h1.824zm5.266 2.156h4.128v.625h-4.854v-6.831h4.707v.624h-3.981v2.43h3.55v.615h-3.55v2.537zm10.854-6.206h.716v6.83h-.598l-4.412-5.542v5.543h-.726v-6.831h.598l4.422 5.542V93.05zm4.285 6.83v-6.206H96.79v-.624h5.55v.624h-2.412v6.207h-.726zm4.295 0v-6.83h.726v6.83h-.726zm7.982-6.83h.716v6.83h-.598l-4.413-5.542v5.543h-.725v-6.831h.598l4.422 5.542V93.05zm7.786 5.718v-2.303h.696v2.606c-.647.575-1.57.868-2.52.868-2.089 0-3.618-1.473-3.618-3.474 0-2 1.53-3.474 3.628-3.474 1.039 0 1.941.332 2.549.986l-.451.459c-.579-.566-1.265-.8-2.069-.8-1.696 0-2.942 1.2-2.942 2.83 0 1.619 1.246 2.829 2.932 2.829.657 0 1.265-.146 1.795-.527z" fill="#000"/></g></svg>