<svg width="37" height="26" viewBox="0 0 37 26" xmlns="http://www.w3.org/2000/svg"><g fill="none" fill-rule="evenodd"><path d="M32.588 25.962H3.638A3.622 3.622 0 0 1 0 22.326V3.663A3.622 3.622 0 0 1 3.639.027h28.868a3.622 3.622 0 0 1 3.639 3.636v18.663c.08 2.02-1.618 3.636-3.558 3.636zM3.638 2.452c-.646 0-1.212.565-1.212 1.211v18.663c0 .647.566 1.212 1.213 1.212h28.868c.647 0 1.213-.566 1.213-1.212V3.663c0-.646-.566-1.212-1.213-1.212H3.639z" fill="#402D33" fill-rule="nonzero"/><path d="M18.113 17.479c-.323 0-.566-.081-.808-.324L1.132 2.855c-.485-.404-.566-1.212-.08-1.697.404-.484 1.212-.565 1.697-.08L18.113 14.65 33.477 1.078c.485-.404 1.294-.404 1.698.08.404.485.404 1.293-.08 1.697l-16.173 14.3c-.243.162-.566.324-.809.324z" fill="#402D33" fill-rule="nonzero"/><path d="M1.456 24.83c-.324 0-.647-.16-.89-.403-.485-.485-.404-1.293.08-1.697L12.13 11.904c.486-.485 1.294-.404 1.699.08.485.485.404 1.293-.081 1.697L2.345 24.508c-.243.161-.566.323-.89.323zM34.69 24.83c-.324 0-.566-.08-.809-.322L22.4 13.68a1.249 1.249 0 0 1-.081-1.696 1.251 1.251 0 0 1 1.698-.081L35.5 22.73c.485.485.485 1.212.08 1.697-.242.242-.566.404-.889.404z" fill="#402D33" fill-rule="nonzero"/></g></svg>