<svg width="168" height="12" viewBox="0 0 168 12" xmlns="http://www.w3.org/2000/svg"><defs><linearGradient x1="0%" y1="50%" y2="50%" id="a"><stop stop-color="#49D2E6" offset="0%"/><stop stop-color="#2FD3B8" offset="100%"/></linearGradient></defs><path d="M876 84.811V73.787h2.547v11.024H876zm12.733-11.024h2.515v11.024h-2.09l-5.487-6.693v6.693h-2.515V73.787h2.107l5.47 6.693v-6.693zm7.404 11.024v-8.945h-3.52v-2.079h9.588v2.08h-3.521v8.944h-2.547zm9.967-2.047h5.99v2.047h-8.521V73.787h8.316v2.048h-5.785v2.393h5.109v1.985h-5.11v2.55zm17.764 2.047h-2.736l-2.122-3.07h-2.342v3.07h-2.547V73.787h4.763c2.94 0 4.78 1.528 4.78 4 0 1.654-.834 2.867-2.265 3.48l2.469 3.544zm-2.783-7.024c0-1.212-.786-1.92-2.342-1.92h-2.075v3.842h2.075c1.556 0 2.342-.725 2.342-1.922zm12.167-4h2.516v11.024h-2.091l-5.486-6.693v6.693h-2.516V73.787h2.107l5.47 6.693v-6.693zm7.656 8.977h5.99v2.047h-8.52V73.787h8.315v2.048h-5.785v2.393h5.109v1.985h-5.109v2.55zm10.297 2.047v-8.945h-3.522v-2.079h9.59v2.08h-3.522v8.944h-2.546zm15.735.126c-2.688 0-4.653-1.811-4.653-4.362s1.965-4.362 4.653-4.362c2.689 0 4.638 1.81 4.638 4.362 0 2.551-1.95 4.362-4.638 4.362zm0-2.016c1.227 0 2.154-.882 2.154-2.346 0-1.465-.927-2.347-2.154-2.347-1.226 0-2.169.882-2.169 2.347 0 1.464.943 2.346 2.17 2.346zm8.96-6.756v.363h2.17v1.89h-2.106v6.393h-2.453v-6.394h-1.304v-1.89h1.304v-.377c0-1.906 1.164-3.15 3.27-3.15.692 0 1.415.142 1.87.457l-.644 1.78a1.715 1.715 0 0 0-.99-.3c-.723 0-1.116.394-1.116 1.228zm16.098 2.914c1.226.393 2.012 1.338 2.012 2.724 0 1.906-1.509 3.008-4.401 3.008h-5.691V73.787h5.376c2.751 0 4.166 1.15 4.166 2.867 0 1.102-.566 1.952-1.462 2.425zm-3.018-3.37h-2.531v2.598h2.53c1.243 0 1.919-.44 1.919-1.307 0-.866-.676-1.291-1.918-1.291zm.44 7.18c1.32 0 2.028-.409 2.028-1.354 0-.929-.707-1.37-2.028-1.37h-2.971v2.725h2.971zm14.745 1.922l-.974-2.362h-5.11l-.974 2.362h-2.61l4.905-11.024h2.515l4.92 11.024h-2.672zm-5.266-4.3h3.49l-1.745-4.22-1.745 4.22zm17.167-1.432c1.226.393 2.012 1.338 2.012 2.724 0 1.906-1.51 3.008-4.402 3.008h-5.69V73.787h5.376c2.75 0 4.165 1.15 4.165 2.867 0 1.102-.565 1.952-1.462 2.425zm-3.019-3.37h-2.53v2.598h2.53c1.242 0 1.918-.44 1.918-1.307 0-.866-.676-1.291-1.918-1.291zm.44 7.18c1.32 0 2.028-.409 2.028-1.354 0-.929-.707-1.37-2.028-1.37h-2.97v2.725h2.97zm6.524 1.922V73.787h2.547v11.024h-2.547zm7.687-2.047h5.99v2.047h-8.52V73.787h8.315v2.048h-5.785v2.393h5.11v1.985h-5.11v2.55zM1039.331 85c-1.745 0-3.505-.52-4.48-1.276l.865-1.92c.927.676 2.31 1.149 3.63 1.149 1.51 0 2.123-.504 2.123-1.181 0-2.063-6.398-.646-6.398-4.74 0-1.875 1.51-3.434 4.637-3.434 1.384 0 2.799.331 3.82.977l-.786 1.937c-1.021-.583-2.075-.866-3.05-.866-1.508 0-2.09.567-2.09 1.26 0 2.031 6.398.63 6.398 4.677 0 1.842-1.525 3.417-4.669 3.417z" transform="translate(-876 -73)" fill="url(#a)" fill-rule="evenodd"/></svg>