<svg width="110" height="110" viewBox="0 0 110 110" xmlns="http://www.w3.org/2000/svg"><g fill="none" fill-rule="evenodd"><circle fill="#8AE0ED" fill-rule="nonzero" cx="55" cy="55" r="55"/><path d="M44.512 52.405H32.156v10.601h-1.8V52.405H18V50.6h12.355V40h1.801v10.601h12.356v1.804zm.072 14.356v1.84H18v-1.84h26.584zm22.853-10.712c0 2.38-.252 4.448-.756 6.203-.504 1.754-1.189 3.202-2.053 4.343-.865 1.141-1.88 1.994-3.044 2.558a8.438 8.438 0 0 1-3.728.847 8.324 8.324 0 0 1-3.71-.847c-1.153-.564-2.162-1.417-3.026-2.558-.865-1.141-1.543-2.589-2.036-4.343-.492-1.755-.738-3.823-.738-6.203 0-2.38.246-4.448.738-6.202.493-1.755 1.171-3.203 2.036-4.344.864-1.141 1.873-1.994 3.025-2.558a8.324 8.324 0 0 1 3.71-.847c1.321 0 2.564.282 3.729.847 1.165.564 2.18 1.417 3.044 2.558.864 1.141 1.549 2.589 2.053 4.344.504 1.754.756 3.822.756 6.202zm-1.945 0c0-2.184-.204-4.049-.612-5.595-.408-1.546-.96-2.81-1.657-3.791-.697-.982-1.507-1.7-2.432-2.154a6.575 6.575 0 0 0-2.935-.68 6.499 6.499 0 0 0-2.9.68c-.925.454-1.735 1.172-2.431 2.154-.697.981-1.255 2.245-1.675 3.791-.42 1.546-.63 3.411-.63 5.595 0 2.209.21 4.086.63 5.632.42 1.546.978 2.81 1.675 3.791.696.982 1.506 1.694 2.431 2.135a6.647 6.647 0 0 0 2.9.663c1.032 0 2.01-.22 2.935-.663.925-.441 1.735-1.153 2.432-2.135.696-.981 1.249-2.245 1.657-3.791.408-1.546.612-3.423.612-5.632zm5.492 13.877c-.48 0-.907-.178-1.28-.533-.371-.356-.558-.84-.558-1.454 0-.638.187-1.135.559-1.491.372-.356.798-.534 1.279-.534.48 0 .906.178 1.278.534.372.356.559.853.559 1.49 0 .614-.187 1.099-.559 1.455-.372.355-.798.533-1.278.533zM92 67.681v1.767H78.492V67.68h5.98V46.368c0-.417.024-.871.072-1.362l-5.332 4.896-1.116-1.325 6.772-6.11h1.549V67.68H92z" fill="#FFF"/></g></svg>