<svg width="110" height="110" viewBox="0 0 110 110" xmlns="http://www.w3.org/2000/svg"><g fill="none" fill-rule="evenodd"><circle fill="#8AE0ED" fill-rule="nonzero" cx="55" cy="55" r="55"/><path d="M74.115 61.066c-3.192 3.086-8.757 3.165-11.577 2.976L77.19 49.867c.196 2.727.115 8.113-3.075 11.2m-9.728-9.413c3.191-3.084 8.758-3.163 11.578-2.974L61.313 62.855c-.197-2.727-.116-8.115 3.074-11.2M48.122 37.61c0-4.365 3.88-8.23 6.011-10.025v20.05c-2.132-1.791-6.011-5.652-6.011-10.025m13.757 0c0 4.363-3.88 8.227-6.011 10.023V27.586c2.13 1.796 6.011 5.66 6.011 10.025M35.885 61.066c-3.189-3.086-3.271-8.472-3.076-11.2l14.654 14.176c-2.82.19-8.39.11-11.578-2.976m9.729-9.412c3.188 3.086 3.27 8.473 3.074 11.201L34.036 48.68c2.82-.19 8.389-.11 11.578 2.974m33.1-3.764c-.008-.038-.027-.073-.04-.109-.01-.031-.017-.061-.031-.091a.852.852 0 0 0-.43-.415c-.03-.014-.063-.022-.095-.03-.037-.013-.072-.03-.111-.038-.4-.068-9.83-1.59-14.847 3.261-4.468 4.323-3.707 12.021-3.437 13.925l-3.855 3.73V49.808c1.583-1.163 7.746-6.086 7.746-12.197 0-6.861-7.783-12.237-8.115-12.463-.033-.023-.07-.033-.104-.05-.031-.015-.06-.032-.093-.044a.878.878 0 0 0-.604 0c-.033.012-.06.029-.09.043-.035.018-.075.028-.107.05-.33.227-8.114 5.603-8.114 12.464 0 6.11 6.164 11.034 7.746 12.197v18.315l-3.855-3.73c.267-1.906 1.028-9.602-3.439-13.925-5.017-4.851-14.447-3.33-14.846-3.26-.04.006-.073.024-.11.036-.033.01-.065.017-.096.03a.859.859 0 0 0-.43.416c-.013.03-.02.06-.031.091-.013.036-.031.07-.038.109-.07.386-1.643 9.512 3.37 14.363 3.041 2.941 7.706 3.54 10.996 3.54 1.54 0 2.766-.131 3.397-.214l5.082 4.917V84.16c0 .463.389.839.867.839.48 0 .868-.376.868-.839V70.496l5.08-4.917c.632.084 1.86.214 3.397.214 3.29 0 7.956-.599 10.997-3.54 5.013-4.851 3.44-13.977 3.371-14.363" fill="#FFF"/></g></svg>