<svg width="110" height="110" viewBox="0 0 110 110" xmlns="http://www.w3.org/2000/svg"><g fill="none" fill-rule="evenodd"><circle fill="#8AE0ED" fill-rule="nonzero" cx="55" cy="55" r="55"/><path d="M55 69.678c-8.32 0-15.091-6.699-15.091-14.932S46.679 39.814 55 39.814s15.092 6.699 15.092 14.932S63.322 69.678 55 69.678m21.196-26.712l-4.1-4.056-1.195 1.183c3.624 3.848 5.862 8.991 5.862 14.653 0 6.799-3.21 12.862-8.2 16.81l2.135 4.898a.761.761 0 0 1-.402 1.004l-3.465 1.48a.781.781 0 0 1-1.015-.398l-1.833-4.205A21.777 21.777 0 0 1 55 76.278c-3.404 0-6.616-.8-9.488-2.185l-2.381 4.498a.77.77 0 0 1-.99.347l-3.465-1.48a.76.76 0 0 1-.38-1.05l2.703-5.202c-4.738-3.953-7.76-9.86-7.76-16.46 0-5.662 2.237-10.805 5.86-14.652l-1.195-1.184-4.099 4.056a.774.774 0 0 1-1.092 0 5.757 5.757 0 0 1 0-8.196l2.098-2.076c2.283-2.258 6-2.26 8.284 0a.758.758 0 0 1 0 1.08l-4.1 4.056 1.197 1.184c3.888-3.586 9.086-5.8 14.808-5.8 5.723 0 10.921 2.214 14.81 5.8l1.195-1.184-4.099-4.056a.76.76 0 0 1 0-1.08c2.283-2.258 6-2.26 8.284 0l2.097 2.076a5.759 5.759 0 0 1 0 8.196.773.773 0 0 1-1.092 0zm-2.098-9.192c-1.495-1.48-3.826-1.642-5.506-.491l8.1 8.015a4.242 4.242 0 0 0-.496-5.447l-2.098-2.077zM55 74.751c11.149 0 20.219-8.974 20.219-20.005 0-11.03-9.07-20.004-20.22-20.004-11.147 0-20.216 8.974-20.216 20.004 0 11.03 9.069 20.005 20.217 20.005zm0-36.464c9.172 0 16.635 7.384 16.635 16.46 0 9.075-7.463 16.458-16.635 16.458s-16.635-7.383-16.635-16.459c0-9.075 7.463-16.46 16.635-16.46zm13.975 38.072l-1.683-3.861c-.618.42-1.256.815-1.92 1.172l1.556 3.563 2.047-.874zm-26.88.896l2.051-3.874a21.805 21.805 0 0 1-1.902-1.228l-2.199 4.227 2.05.875zm-8.788-35.957l8.101-8.015a4.339 4.339 0 0 0-2.454-.757c-1.107 0-2.21.417-3.052 1.248l-2.097 2.077a4.242 4.242 0 0 0-.498 5.447zM55 55.85a1.11 1.11 0 0 1-1.115-1.103c0-.609.5-1.104 1.115-1.104a1.11 1.11 0 0 1 1.116 1.104c0 .608-.5 1.103-1.116 1.103zm7.309-1.867h-4.777a2.64 2.64 0 0 0-1.76-1.74v-7.47A.768.768 0 0 0 55 44.01a.768.768 0 0 0-.772.764v7.468c-1.088.33-1.887 1.32-1.887 2.505 0 1.45 1.193 2.63 2.66 2.63a2.65 2.65 0 0 0 2.53-1.866h4.778a.768.768 0 0 0 .772-.764.767.767 0 0 0-.772-.764z" fill="#FFF"/></g></svg>