<svg width="66" height="60" viewBox="0 0 66 60" xmlns="http://www.w3.org/2000/svg"><path d="M64.13 42.978L42.456 5.46A10.935 10.935 0 0 0 32.988 0a10.935 10.935 0 0 0-9.468 5.46L1.465 43.62a10.908 10.908 0 0 0 0 10.92A10.935 10.935 0 0 0 10.933 60h44.134C61.105 60 66 55.11 66 49.08c0-2.26-.69-4.365-1.87-6.102zM37.668 46.63c0 2.58-1.988 4.555-4.668 4.555s-4.668-1.974-4.668-4.555v-.107c0-2.57 1.988-4.556 4.668-4.556s4.668 1.974 4.668 4.556v.107zm.108-30.714l-2.31 20.15c-.156 1.452-1.12 2.356-2.466 2.356s-2.31-.916-2.465-2.355l-2.31-20.163c-.155-1.558.69-2.736 2.143-2.736h5.252c1.453.012 2.31 1.19 2.156 2.748z" fill="#3726AF" fill-rule="nonzero"/></svg>