<svg viewBox="0 0 115 32" width="115" height="32" xmlns="http://www.w3.org/2000/svg"><defs><linearGradient x1="6.116%" y1="6.905%" x2="95.02%" y2="91.749%" id="a"><stop stop-color="#00FFCD" offset="0%"/><stop stop-color="#00D4E4" offset="100%"/></linearGradient><linearGradient x1="1.879%" y1="40.27%" x2="110.506%" y2="40.27%" id="b"><stop stop-color="#B620B4" offset="0%"/><stop stop-color="#AD23B5" offset="22.81%"/><stop stop-color="#952BB8" offset="59.66%"/><stop stop-color="#7437BC" offset="100%"/></linearGradient><radialGradient cx="-19.513%" cy="89.587%" fx="-19.513%" fy="89.587%" r="140.881%" gradientTransform="matrix(.84832 -.4631 .44975 .89929 -.433 0)" id="c"><stop stop-color="#B620B4" offset="0%"/><stop stop-color="#3726AF" offset="100%"/></radialGradient></defs><g fill="none" fill-rule="evenodd"><path d="M44 11.221h2.111v8.446h3.352v2.112H44V11.22zm9.39 10.558h-2.111V11.22h2.11V21.78zm6.23 0H57.51v-8.446h-2.628v-2.097h7.367v2.097H59.62v8.446zm8.076 0h-2.111v-8.446h-2.628v-2.097h7.367v2.097h-2.628v8.446zM71.92 11.22h2.11v8.446h3.352v2.112H71.92V11.22zM84.66 21.78h-5.463V11.22h5.286v2.112h-3.174v2.111h2.775v2.112H81.31v2.111h3.351v2.112zm7.057.147c7.264 0 7.264-10.882 0-10.882s-7.264 10.882 0 10.882zm0-2.185c4.223 0 4.223-6.526 0-6.526-4.222 0-4.222 6.526 0 6.526zm9.538-3.706v5.744h-2.112V11h.562l5.33 6.201v-5.965h2.125V22h-.56l-5.345-5.965zM115 21.779h-5.463V11.22h5.286v2.112h-3.174v2.111h2.775v2.112h-2.775v2.111H115v2.112z" fill="#3726AF"/><path d="M30.6 8.446a7.874 7.874 0 0 0-.844-1.044S24.726 1.772 16.197.22c-2.334-.528-4.91-.119-7.103 1.324-2.192 1.443-3.54 3.639-3.924 5.954-1.732 8.333 1.644 15.019 1.666 15.051.187.399.406.786.658 1.163 2.094 3.047 5.952 4.264 9.503 3.273 0 0 5.755-1.389 12.211-7.687 3.059-2.864 3.727-7.44 1.392-10.853z" fill="url(#a)"/><path d="M25.673 19.234c0-.411-.033-.812-.1-1.212 0 0-.906-6.754-6.606-12.177-1.509-1.56-3.7-2.544-6.136-2.544s-4.627.974-6.125 2.533C1.017 11.246.101 17.979.101 18.01c-.067.39-.101.79-.101 1.202 0 3.344 2.325 6.18 5.555 7.208 0 0 5.13 1.819 13.368.293 3.833-.617 6.75-3.735 6.75-7.48z" fill="url(#b)"/><path d="M26.11 8.844a8.046 8.046 0 0 0-1.166-.458s-6.641-2.29-14.235.207a8.4 8.4 0 0 0-5.107 4.188c-1.098 2.116-1.187 4.472-.437 6.49 2.42 7.416 8.22 11.276 8.254 11.298.336.24.684.447 1.064.633 3.092 1.527 6.765.785 9.173-1.56 0 0 3.999-3.642 6.317-11.506 1.154-3.632-.403-7.58-3.864-9.292z" fill="url(#c)" opacity=".9"/></g></svg>